<svg id="Layer_1" data-name="Layer 1" xmlns="http://www.w3.org/2000/svg" viewBox="0 0 3000 2000"><defs><style>.cls-1{fill:#feffff;}.cls-2{fill:#007ea8;}.cls-3{fill:#1c5d99;}.cls-4{fill:#007ea7;}.cls-5{fill:#06aed5;}.cls-6{fill:#f7f9f9;}.cls-7{fill:#63d2ff;}.cls-8{fill:#026780;}.cls-9{fill:#abe7f1;}</style></defs><title>background_2b</title><path class="cls-1" d="M2952,2002H2636c1.76-2.77,3.31-5.7,5.31-8.28,16.5-21.27,13.79-51-6.3-69.64-16.65-15.43-51.15-18-69.31,1-12.17,12.77-24.86,25.06-37.42,37.47-7.33,7.25-14.85,14.31-22.28,21.46-12.47-1.94-22.07,2.88-29.61,12.57-1.43,1.83-2.93,3.61-4.39,5.42h-38c2.9-3.19,5.66-6.51,8.7-9.56q122-122.1,244.1-244.14a95.57,95.57,0,0,0,6.92-7.18c5-6.22,5-12.69,0-18s-11.63-5.89-18-1.45c-2.17,1.51-4.1,3.37-6.14,5.08-6.67-3.48-10.39,1.07-14.46,5.14q-131.65,131.73-263.34,263.42c-2.09,2.08-3.87,4.48-5.79,6.74h-60c-.16-2.74-.31-5.49-.47-8.23,5.12-5.19,10.43-10.22,15.32-15.63,6-6.67,5.94-14.08.26-19.48-5.37-5.1-12.37-5-18.78.56-4,3.45-7.87,7.1-11.8,10.66-15.81-7.19-27.36-5.31-39.57,6.75-8.44,8.34-16.65,16.91-25,25.37h-74c7.12-7.45,14.27-14.87,21.33-22.37,2.27-2.41,4.75-4.78,6.39-7.61,4.21-7.25-.2-15.08-8.6-15.87-4.79-.45-8.23,1.84-11.41,5.06-7.24,7.34-14.48,14.7-21.93,21.83-2.84,2.72-6.26,4.82-9.41,7.2l-23.87-20.4c2.15-2.53,4.46-5.66,7.17-8.39,18.26-18.38,36.68-36.61,54.87-55.06,2.95-3,5.06-6.81,7.56-10.24,13,.93,23.23-4.58,31.71-14,1.12-1.24,2.36-2.36,3.54-3.54q173.55-173.55,347.09-347.11c3.3-3.3,6.62-6.6,9.61-10.17,10.34-12.29,10-28.17-.77-38.87-11-11-27.39-11.14-39.66-.27-3.24,2.86-6.2,6-9.27,9.1l-73.78,73.24c-2.25-3.64-4.33-7.41-6.81-10.89s-5.34-6.59-8-9.86c2.45-2.7,4.8-5.5,7.37-8.08q49.41-49.48,98.88-98.94a59,59,0,0,0,6.06-6.6c2-2.79,1.83-6.16-1.07-7.89a8.78,8.78,0,0,0-7.15-.32c-2.58,1.2-4.54,3.8-6.66,5.91q-49.47,49.42-98.94,98.88c-2.57,2.57-5.38,4.9-8.08,7.35-1.58-1.7-2.91-3.74-4.77-5-32.13-22.46-73.58-18.66-100.94,7.61-15.14,14.54-29.67,29.71-44.67,44.4-3,2.94-6.91,5-10.4,7.42L2255.44,1567c1.86-1.91,3.7-3.84,5.58-5.72l330.91-330.91c2.35-2.36,4.83-4.62,7-7.13,5.35-6.2,5.48-13.69.53-19-5.21-5.55-13.09-5.61-19.7-.07-1.78,1.5-3.37,3.22-5,4.87q-169.35,169.34-338.67,338.71c-2.57,2.57-4.79,5.48-7.18,8.23-2-.2-4-.31-5.95-.6-23.08-3.37-43.54,2.9-61.66,17.13-5,3.89-9.27,8.6-13.74,13.07q-186.52,186.48-373,373c-11.54,11.54-23.16,23-34.55,34.69-2.43,2.49-4,5.82-6,8.76h-42c6.88-7.21,13.78-14.4,20.62-21.64,2.05-2.17,4.32-4.25,5.84-6.77,2.83-4.72,1.79-11.78-1.73-14.72-3.82-3.21-8.84-3.22-13.88,0a14.12,14.12,0,0,0-2.37,1.83q-20.25,20.64-40.48,41.3h-54c2-3,3.68-6.21,6-8.94,2.77-3.3,6.33-6,9-9.33,5.69-7.2,9.82-15.1,8.24-24.76-2-12-8.85-19.8-20.63-23.08-10.61-3-19.58,0-27.24,7.72-16.69,16.72-33.47,33.35-50,50.18-2.23,2.27-3.54,5.45-5.27,8.21H1136c1.23-1.55,2.5-3.07,3.69-4.64,5.23-6.89,5.17-13.49-.13-18.69-5.61-5.49-12.76-5.38-19.49.63-3.94,3.51-8,7.07-11.12,11.28-2.39,3.26-3.35,7.58-5,11.42H296a91.51,91.51,0,0,1,6.09-7.59c10.48-10.65,21.11-21.16,31.66-31.74a56.28,56.28,0,0,0,5.41-5.84,19.66,19.66,0,0,0-2-26.28,20,20,0,0,0-25.6-1.53,39,39,0,0,0-4.43,4q-31.73,31.68-63.37,63.43c-1.54,1.55-2.5,3.68-3.73,5.54H118c1.73-2.75,3.38-5.55,5.21-8.23,1.67-2.45,3.92-4.57,5.22-7.18,2.7-5.47,1.29-10.65-3.34-14.12-4.3-3.24-9-3.28-13.43,1.1C102.22,1982.82,93.2,1992.5,84,2002H2V1756c12.5-.75,20.86-8.19,29.15-16.73,22.25-22.9,45.05-45.25,67.6-67.86a54,54,0,0,0,6.66-7.39,19.78,19.78,0,0,0-28.23-27,66.41,66.41,0,0,0-6.53,6.15c-20,20-39.94,40-60,59.9-2.3,2.27-3.89,6.55-8.6,4.94V1574c2.9-2.17,6.11-4,8.65-6.56q61.16-61,122.15-122.12a75.87,75.87,0,0,0,8.55-9.74,12.54,12.54,0,0,0-1.28-16.45c-4.79-5-11.38-5.94-17.19-2a60.58,60.58,0,0,0-8.14,7.33q-51.21,51.15-102.45,102.29C9.36,1529.7,5.45,1531.62,2,1534V192c2.45,1,4.85,2.71,7.37,2.9,4.16.32,9.63,1.25,12.36-.88a88.13,88.13,0,0,0,18-18.44c5.13-7.32-.34-16.51-9.33-17.49A17,17,0,0,0,15.86,163c-4.22,4.07-9.21,7.35-13.86,11V2H84c-3.38,4-6.58,8.11-10.17,11.89C67,21.1,59.52,27.76,53.06,35.3c-6.93,8.09-6.14,18.86.91,26.24,7.33,7.65,18.24,8.3,27,1.56a29.75,29.75,0,0,0,3-2.65Q110.72,33.74,137.4,6.94c1.25-1.26,1.75-3.28,2.6-4.94H276c-2.7,3.31-5.14,6.88-8.14,9.89Q146.45,133.44,25,254.91c-3.27,3.29-6.69,6.61-9.17,10.47a13.36,13.36,0,0,0,1.85,16.56c4.71,4.57,11.59,5.13,17.41,1.16A44.49,44.49,0,0,0,41,277.79q133.52-133.47,266.93-267C310.39,8.29,312,4.94,314,2h74c0,2.65-.14,5.32.12,8,1,10.16,11.25,15.93,19.59,10.22C414.4,15.58,421,10.22,424,2h64c-2.56,3-4.92,6.23-7.7,9q-35.87,36-71.86,72a54,54,0,0,0-6.67,7.37A13.46,13.46,0,0,0,420.64,109a43.06,43.06,0,0,0,5.92-5.31q46.56-46.5,93-93.09C522.09,8.12,523.88,4.9,526,2h52c-7.28,6.26-15,12.09-21.77,18.85Q428,148.82,299.94,277c-2.35,2.35-4.76,4.66-7,7.08-11.71,12.4-11.91,31.64-.49,43.21s30.67,11.58,43.25.19c3.15-2.84,6.82-5.1,10.26-7.63,5.15,20,25.66,23.08,38.24,8.4,7.33-8.55,15.86-16.08,23.85-24.07Q434.1,278.09,460.2,252c4.09-4.08,7.3-8.5,7.93-14.52,1.12-10.8-6.25-20.59-18.23-22.21,2.89-3.59,5.49-7.48,8.72-10.72Q532.27,130.73,606.05,57c12.89-12.9,14.71-22,8-38.64L628,2H798c-14.6,8.48-25.9,20.77-37.67,32.54q-90.48,90.54-181,181Q468.67,326.21,358,436.82c-12.49,12.45-20.91,27-23.2,44.34-1.3,9.8-.22,19.92-.21,29.9Q291.79,553.78,249,596.53a27.68,27.68,0,0,0-4.94,6.2,12.68,12.68,0,0,0,2.66,15.53,12.92,12.92,0,0,0,15.67,2,38.18,38.18,0,0,0,6.8-5.8c9.71-9.61,19.31-19.33,29-28.94q23.79-23.55,47.65-47c3.14,3.41,6.2,6.91,9.44,10.23,19.53,20,43.15,27.8,70.76,23.53,16.67-2.57,30.83-10.09,42.78-21.88q25.56-25.21,51.06-50.49l14.29,10.38L482.54,562.7a62.08,62.08,0,0,0-5.49,5.76c-2.25,3-2.71,6.75.53,8.75,1.95,1.2,5.66.69,8.06-.3s3.9-3.49,5.79-5.36q26.23-25.8,52.45-51.63c8,3.66,15.91,7.64,24.1,10.84,4.51,1.76,9.54,2.19,14.33,3.22-4,5.27-8.63,10.21-12,15.88-17.76,29.71-2.54,62.75,23.21,73.9a50.67,50.67,0,0,0,56.31-10.53q57.66-57.43,115.11-115.07A29.46,29.46,0,0,0,769,493.8c7.2-11,13-22.43,8.93-36.24q17.76-18,35.53-36.08a60.47,60.47,0,0,0,6.09-6.53,11.62,11.62,0,0,0-.5-14.66c-3.72-4.35-8.91-5.46-14.32-2.37a46.5,46.5,0,0,0-8.42,6.85c-8.91,8.38-17.71,16.87-26.55,25.32-7.86-6.53-15.36-13.6-25.72-16.14,2.44-3.44,4.46-7.3,7.39-10.27,18.85-19.12,37.94-38,56.83-57.06,3-3,5.28-6.67,7.9-10,12.16.51,21.36-4.69,29.88-13.3,44.73-45.24,89.86-90.1,134.85-135.09q88-88,175.88-176c2.9-2.9,4.83-6.76,7.21-10.18h328c-6.49,7-13,14-19.46,21.09-2.23,2.44-4.71,4.78-6.38,7.57-2.79,4.68-1.79,9.9,2,13.68a10.94,10.94,0,0,0,13.69,1.79,27.32,27.32,0,0,0,5.35-4.39C1498,31,1508.86,20.24,1519.51,9.31c2-2,3-4.85,4.49-7.31h172c-2.47,3.46-4.54,7.31-7.48,10.31-14.93,15.22-30.1,30.2-45.14,45.31-2.1,2.12-4.62,4.19-5.73,6.8-.86,2-.7,5.69.63,7.09s4.93,1.65,7,.94c2.33-.78,4.23-3.11,6.1-5q28.32-28.22,56.49-56.58C1710.4,8.38,1712,5,1714,2h384c-3.11,3.46-6.06,7.07-9.34,10.35Q1931.42,169.67,1774.11,327a75.63,75.63,0,0,0-7.53,8,13.24,13.24,0,0,0,18.56,18.55,77.59,77.59,0,0,0,8-7.53L2042.67,96.43q42.06-42.06,84.06-84.19c2.91-2.93,4.87-6.8,7.27-10.24h530c-2.13,2.83-4,6-6.43,8.44q-36.92,37.14-74,74.11c-2.11,2.11-4.7,4.09-5.86,6.67-.89,2-.73,5.63.58,7s4.93,1.84,7,1.14c2.31-.77,4.12-3.21,6-5.08q42.7-42.63,85.32-85.35c2.05-2,3.6-4.61,5.38-6.93h320V20c-3.22,2.23-6.88,4-9.61,6.74q-57.73,57.45-115.23,115.13a47.36,47.36,0,0,0-5.31,5.94c-1.91,2.68-2.47,6.23.49,8,2.06,1.2,5.8,1.12,8,0,2.86-1.38,5-4.27,7.38-6.62q52.32-52.26,104.61-104.54c3-3,6.42-5.77,9.64-8.65V318c-4.14,3.84-8.59,7.41-12.35,11.59-5.26,5.87-4.7,12.08.7,17.78A14.35,14.35,0,0,0,3002,352v66c-5.63,7.86-5.63,10.57,0,16V998c-3.7,2.68-7.84,4.91-11,8.09q-63.33,63-126.43,126.31c-1.89,1.88-3.81,3.73-5.55,5.74-2.09,2.41-3.83,5.65-.6,7.72,1.95,1.25,5.78,1.1,8,0,2.86-1.38,5-4.26,7.38-6.6q59.32-59.28,118.64-118.58c3-3,6.38-5.81,9.58-8.7v290c-13.6.85-20.73,10.86-27.77,20.4-4,5.4-2.05,13.07,2.83,17.08,4.25,3.48,11.68,3.39,16.63-.41,2.88-2.21,5.55-4.7,8.31-7.07v64c-4.7,4-9.69,7.82-14,12.24s-5.16,10-2.68,15.66c2.37,5.47,7,7.7,12.72,7.88,1.32,0,2.64.14,4,.22v420c-2.51,1.53-5.43,2.63-7.46,4.64q-30.83,30.51-61.37,61.32c-1.82,1.84-4,4.12-4.34,6.44a10.73,10.73,0,0,0,2.26,7.78c.78.89,4.75-.37,6.86-1.46s3.42-3.1,5.06-4.74q23.28-23.26,46.56-46.51c4-4,8.28-7.66,12.43-11.47v134h-26c3.55-3.88,7.23-7.66,10.62-11.68,5-6,4.89-13.84-.12-18.77s-12.72-4.9-18.74.3c-3,2.58-5.47,5.76-8.52,8.26C2952.15,1985.94,2949.34,1993,2952,2002ZM1542.92,1872.46q-22.12,22.33-44.21,44.7a44.52,44.52,0,0,0-7,8.38,13.51,13.51,0,0,0,2.43,16.51c4.52,4.25,10.92,4.8,16.56,1.2a32.5,32.5,0,0,0,5.3-4.52c25.67-25.62,51.4-51.19,76.92-77,11.13-11.24,8.92-20.61-5.73-26.37a48.41,48.41,0,0,1,3.15-3.82q31.32-31.39,62.69-62.74c6-6,7-9.29,4.21-12.58-3.07-3.58-6.53-2.56-13.16,4q-22.93,22.88-45.81,45.8-26.43,26.42-52.84,52.87C1539.38,1865.06,1539.47,1865.14,1542.92,1872.46ZM208.46,275.8c2.44-2.7,4.79-5.49,7.35-8.07q28.5-28.59,57.06-57.1a63.41,63.41,0,0,0,5.45-5.8c2.07-2.68,2.11-5.6-.41-8.08s-5.46-2.44-8.12-.38a68.67,68.67,0,0,0-6.54,6.12q-43,43-86,86c-4.23,4.22-8.37,8.55-12.7,12.67-4.12,3.93-4.41,7.91-.75,12.22Q141.36,336,118.91,358.68a44.76,44.76,0,0,0-6.45,7.54c-2.88,4.63-2.56,9.56.36,14.14,2.77,4.34,7,5.82,12,5.73s8.59-3,11.94-6.38q38.42-38.46,76.85-76.91C224.51,291.81,222.6,282.44,208.46,275.8Zm1081.7-108.53c-6.87-3.73-10.41,1.48-14.35,5.42q-209.2,209.18-418.38,418.38a62.29,62.29,0,0,0-4.81,5.08c-2.07,2.61-2.56,5.55-.14,8.16,2.75,3,6,2.55,8.95.29a65.23,65.23,0,0,0,5.77-5.52l56.16-55.42q10.08,18.9,25.23,4.52c1-.92,1.9-1.88,2.84-2.82q178.76-178.75,357.5-357.51c1.88-1.88,3.87-3.69,5.55-5.74,4.5-5.51,4.76-12.43.84-17.45-4.09-5.24-11.72-6.59-18.07-2.88C1294.69,163.27,1292.51,165.42,1290.16,167.27ZM1057.89,534c4.75,8.37,9,16.92,16.86,23.22,21,16.89,53.29,12.82,70.13-4.61C1181,515.26,1218,478.77,1255,442.33c12.49-12.3,18.69-26.15,17.15-43.78s-9.59-31.09-24.81-39.74c-20.8-11.83-44.36-9.17-62.74,8.15-19.62,18.49-38.13,38.16-57.12,57.31-9.76-1.32-18.15.72-25.46,8.09-13.8,13.92-28.34,27.1-42.17,41q-19.68,19.78-38.47,40.44c-7,7.73-7,16-1,23.46,7,8.71,15.33,11,24.62,6.07C1049.65,540.85,1053.63,537.16,1057.89,534ZM1993.66,1577.4q23.34-23.75,46.69-47.49c1.85-1.89,4.49-3.65,5.12-5.92s.14-6-1.36-7.83c-1-1.21-5-1.05-7-.09-2.56,1.24-4.48,3.84-6.61,5.93q-22.66,22.32-45.31,44.68c-18.93-9-33.61-3.8-48.18,10.91Q1808,1707.9,1677.84,1837.18a101.3,101.3,0,0,0-7.61,7.91c-12.94,16.09-6.76,40.74,12.21,48.54,12.57,5.17,23.41.86,33.5-6.75,3.16-2.37,6.31-4.76,9.47-7.14,5,13.1,12.59,19,23.56,16.26,5.12-1.26,10.21-4.83,14.08-8.62,25.21-24.75,50.08-49.83,75-74.84a45.52,45.52,0,0,0,5.92-6.74,19.66,19.66,0,0,0-7.64-28.91,68.57,68.57,0,0,0-6.49-2.51c2.58-3,5-6.22,7.78-9,12.64-12.78,25.39-25.45,38.1-38.16,36.48-36.48,72.85-73.07,109.52-109.36,8.23-8.15,12-17.38,10.68-28.71C1995.49,1585.17,1994.44,1581.3,1993.66,1577.4ZM931.7,410.54c-7.37-3.51-14.87-5.47-23.18-3.38-7.82,2-13.48,6.84-19,12.33Q757.85,551.31,626.05,683.07a65.84,65.84,0,0,0-7.45,8.06c-7.39,10.42-8.54,21.64-2.44,32.94,5.87,10.87,15.31,16.24,27.82,16.11,9.27-.09,16.53-4.19,22.9-10.59q26.05-26.24,52.26-52.31Q826.54,569.88,934,462.54c7.94-7.92,13.49-16.45,12-28.19,5.2-5.08,10.6-10,15.54-15.28,5.89-6.34,5.92-14.18.56-19.45s-13-4.94-19.5.87C938.92,403.78,935.34,407.19,931.7,410.54Zm272.2-284.69c2.18-2.47,4.26-5,6.58-7.39q21.43-21.55,43-43a55.3,55.3,0,0,0,5.43-5.83,19.78,19.78,0,0,0-28.33-27.28c-2.57,2.07-4.79,4.58-7.16,6.91L1175.82,96c-13.06-4.94-26.33-5.36-38.79,1a87.38,87.38,0,0,0-21.93,15.29Q1040.16,186.42,966,261.39c-6.64,6.72-11.82,15.27-16.14,23.75-3.17,6.24-6.06,13.61-1.84,21q-18.81,19.2-37.6,38.4c-2.09,2.14-4.24,4.23-6.13,6.53-2.2,2.66-2.15,5.5.31,8.05s5.26,2.85,8,.71a70.73,70.73,0,0,0,5.84-5.39q15.72-15.26,31.39-30.53c4.83,6.31,8.78,13.62,14.65,18.74,20.58,18,53.39,13.21,69.94-3.69,52.23-53.28,105.32-105.7,158.07-158.46a45.07,45.07,0,0,0,4.82-5.06C1208.49,160.11,1212.16,143.75,1203.9,125.85ZM2554.13,1656.13c-3.71-1.32-7.34-3.4-11.15-3.83-16.83-1.9-31.38,3-43.55,15.15q-77.89,78.13-156.11,156c-12.21,12.07-18.47,25.7-17.34,42.76q-18.09,18.52-36.16,37.07a62.66,62.66,0,0,0-6,6.65c-1.91,2.65-2.45,6.22.52,7.94,2.07,1.19,5.57.83,8.07,0,2-.62,3.56-2.87,5.2-4.51,7.55-7.49,15-15.13,22.62-22.48,2.83-2.71,6.26-4.77,9.42-7.13,1.92,3.12,3.6,6.42,5.8,9.33,12.62,16.7,29.48,23,50,20,13.61-1.94,24-9.8,33.25-19q74.74-74.38,149.17-149.1c17-17.09,24.86-36.8,16.08-60.8l46.74-47.53a91.29,91.29,0,0,0,6.86-7.2c6.7-8.48,5.91-19.89-1.69-27a19.9,19.9,0,0,0-26.38-.63c-2.55,2.11-4.77,4.61-7.13,6.94Zm-208.14-376c-3.43-1.27-6.78-2.83-10.3-3.76-19.84-5.22-38.8-3.87-54,11.2q-80.58,79.85-160.48,160.36c-25.07,25.17-16,66.42,12.31,80.87l10.68,5.45c-1.37,2.21-2.5,4.64-4.19,6.59-3,3.48-6.45,6.59-9.53,10-2.25,2.5-2.52,5.34-.18,8s5.29,2.61,8,.74a57.45,57.45,0,0,0,6.76-5.72c6.93-6.56,13.79-13.19,20.68-19.8,12.18-1.06,22-6.78,30.49-15.25,52.19-52.21,104.07-104.74,156.77-156.42,17.45-17.1,20.48-52.76,5.26-69.39-1.07-1.18-1.55-2.9-2.31-4.37,2.54-2.63,5.05-5.29,7.64-7.88q59.66-59.68,119.32-119.34a71.59,71.59,0,0,0,6.2-6.49c2.28-3,2.46-6.25-.54-8.92-2.66-2.36-5.54-2-8.11.31-2,1.75-3.87,3.65-5.76,5.53q-44.49,44.48-89,89C2372.52,1253.93,2359.23,1267,2346,1280.09Zm-172.41,10.47c-.28-11.73-11.26-17.81-20.5-12.63-3.12,1.74-5.76,4.49-8.34,7.06q-178.87,178.8-357.7,357.68a48.41,48.41,0,0,0-6,6.67c-4.21,6.15-3.32,13.46,1.89,18.11,4.84,4.3,11.89,4.58,17.47.33a73.3,73.3,0,0,0,7.25-6.86q177.79-177.76,355.57-355.56c2.35-2.36,5-4.57,6.81-7.28S2172.83,1292.21,2173.58,1290.56Zm-876.24,665.7c5.82.62,9.63-3.77,13.65-7.79l359-359a52.56,52.56,0,0,0,5.45-5.83c4.29-5.81,3.65-13.64-1.25-18.2-4.7-4.36-11.91-4.68-17.45-.59a46.78,46.78,0,0,0-5.1,4.77q-179.87,179.85-359.72,359.73a40.46,40.46,0,0,0-6,6.69C1280.36,1945,1286.21,1956,1297.34,1956.26ZM108.6,544c7.31.62,13.69-1.14,19.09-6.57C166,499,204.53,460.68,242.78,422.15c10.37-10.44,9.72-28.79-.67-38.82C232,373.5,214.1,373,204,383.05Q146.2,440.43,88.8,498.21c-7.15,7.17-9.74,21.83-5,30.66C89,538.49,96.57,545.13,108.6,544Zm484.46,359.7c6.34,0,10.26-4.21,14.28-8.23Q696.07,806.72,784.77,718a47.23,47.23,0,0,0,6-6.7c3.78-5.58,3.18-11.75-1.23-16.5a13.11,13.11,0,0,0-16.4-2.73,39.44,39.44,0,0,0-7.64,6.35Q676.69,787.09,588,875.85a35.51,35.51,0,0,0-6.35,7.65C576.62,892.75,582.92,903.67,593.06,903.68ZM1920.33,35.76c-.33-8.41-4.22-14.54-12-17.86-8.28-3.51-15.8-1.62-22,4.53q-40.69,40.41-81.09,81.1c-8.69,8.78-8.77,20.54-1,28.58,8,8.25,20.06,8,29.29-.8,5.29-5,10.37-10.32,15.54-15.49q31.74-31.72,63.5-63.44C1917.25,47.74,1920.66,42.7,1920.33,35.76Zm176.92,448.39c6.37.15,11.23-3.68,15.82-8.28q38.37-38.5,76.83-76.92a35.92,35.92,0,0,0,5.68-6.89,19.76,19.76,0,0,0-4-24.56,19.39,19.39,0,0,0-24-1.74,45.8,45.8,0,0,0-6.67,6q-37.77,37.69-75.48,75.46a45,45,0,0,0-5.37,5.86c-4.56,6.58-5.16,13.68-1.36,20.73S2088.59,484.35,2097.25,484.15Zm-758,1254.16c6.54.25,11.42-3.56,16-8.16q38.4-38.48,76.85-76.89a40.91,40.91,0,0,0,4-4.42c6.18-8.27,5.48-19.39-1.58-26.38s-18-7.7-26.38-1.34a59.69,59.69,0,0,0-5.82,5.44q-37,37-74,74.06a47.65,47.65,0,0,0-6.53,7.48c-4.34,6.73-4.47,13.82-.39,20.73C1325.24,1735.4,1331.18,1738.52,1339.23,1738.31ZM2814.62,98.72c.06-13.29-12.75-21.16-24.16-15.42-3.19,1.6-6,4.21-8.56,6.74q-30.72,30-61.26,60.24a40.29,40.29,0,0,0-5.34,5.91c-6,8.85-2.55,19.84,7.35,24,7,2.94,13.14,1.07,18.49-3.62,4.75-4.16,9.15-8.73,13.66-13.16q26.37-25.9,52.73-51.81C2811.45,107.77,2814.73,103.71,2814.62,98.72Zm-13.47,991.72c-.41-14.61-14.33-22.23-25.08-16.09a40.79,40.79,0,0,0-7.63,6.37q-20.11,19.41-40.1,39c-8.33,8.14-16.82,16.15-24.78,24.64-6.59,7-6.52,16.2-.66,22.6s16.11,6.92,23.56,1.12a63.57,63.57,0,0,0,5.12-4.74q23.63-23,47.22-46c5.48-5.35,11.25-10.47,16.19-16.27C2798.07,1097.44,2799.87,1092.72,2801.15,1090.44ZM429,1693.23c.39-14.46-13-22.79-24.12-17.18a33.45,33.45,0,0,0-7.78,6.12q-23.34,22.55-46.53,45.25c-6.66,6.51-13.48,12.9-19.64,19.87-5.64,6.38-5.68,13.92-1.19,20.24a16.46,16.46,0,0,0,18.72,5.8,21.21,21.21,0,0,0,7.56-4.63c22.47-21.77,44.92-43.57,67.08-65.65C426.24,1700,427.81,1695.34,429,1693.23ZM1487.37,631c6,.62,9.91-3,13.74-6.79q38.43-38.48,76.88-76.92a42.27,42.27,0,0,0,4.64-5.2c3.21-4.52,3.15-9.37.62-14.14s-6.61-6.12-11.65-6.23c-5.57-.12-9.24,3-12.85,6.6q-38.05,38.15-76.16,76.23a30.38,30.38,0,0,0-5.14,6C1472.49,619.29,1477.77,630,1487.37,631ZM1348.3,1487.57c-.9-1.86-1.39-4.66-3-5.59s-4.43-.37-6.26.51c-2,1-3.52,3-5.17,4.63Q1248.46,1572.53,1163,1658a52,52,0,0,0-4.73,5.12c-2.22,2.93-3.18,6.63.19,8.77,1.94,1.23,5.71.88,8-.15,2.58-1.15,4.52-3.83,6.63-6q83.34-83.29,166.64-166.63a63.64,63.64,0,0,0,5.47-5.8C1346.45,1491.82,1347.11,1489.9,1348.3,1487.57ZM86,1889.49a85,85,0,0,0,8-6.48q85.49-85.32,170.84-170.79c1.88-1.87,4-3.72,5.21-6,.81-1.47,1.07-4.46.16-5.36-1.37-1.37-4.3-2.53-6-2-2.68.89-5.13,3-7.2,5q-86.53,86.39-173,172.91a25.32,25.32,0,0,0-4.47,5.31C77.52,1886,80,1889.69,86,1889.49ZM2365.54,449c.06-5.21-3.73-7.7-7.47-5.35-2.77,1.74-5.08,4.26-7.43,6.6q-84.07,84-168.11,168.09c-1.89,1.88-3.81,3.73-5.56,5.74-2.08,2.41-3.83,5.65-.64,7.73,1.94,1.27,5.71,1,8,0,2.59-1.11,4.56-3.79,6.67-5.9q83.37-83.32,166.69-166.68a61.28,61.28,0,0,0,5.49-5.8A24,24,0,0,0,2365.54,449ZM489,1356a89.13,89.13,0,0,0,7.21-6q48.72-48.59,97.34-97.3a55.8,55.8,0,0,0,4.74-5.11c2.09-2.67,2.57-6.1-.29-7.92-2-1.3-5.46-1.13-8-.6-1.67.34-3,2.48-4.41,3.89q-49.38,49.35-98.73,98.73c-1.64,1.64-3.52,3.21-4.62,5.19C479.79,1351.23,482.78,1356.23,489,1356Zm343.59,188.42a85.7,85.7,0,0,0-7.25,6q-49.08,48.93-98,98c-1.65,1.64-4.08,3.17-4.55,5.13-.59,2.51-.38,6,1.06,7.91,1,1.25,4.89,1,7.08.3,2-.69,3.51-2.93,5.16-4.57q49-49,98-98c1.86-1.87,3.92-3.74,5.14-6C841.32,1549.22,838.41,1544.57,832.63,1544.39ZM1426.24,422c0-4.86-3.53-7.77-7.45-6.44a15.74,15.74,0,0,0-5.61,3.88q-50.51,50.37-100.88,100.84c-1.41,1.4-3.45,2.88-3.7,4.55-.34,2.32-.07,5.71,1.39,7.06s5.07,1.47,7,.59c2.58-1.16,4.56-3.76,6.67-5.87q47.64-47.58,95.23-95.21a58.71,58.71,0,0,0,4.85-5A28.11,28.11,0,0,0,1426.24,422ZM347.52,1438.34c.1-5.14-4.35-8.09-8.5-6.08-2.31,1.11-4.25,3.13-6.12,5q-49.12,49-98.17,98.15a29.84,29.84,0,0,0-4.59,5.23c-1.75,2.88-1.58,6.27,1.46,7.85,1.92,1,5.14.78,7.21-.15,2.29-1,4-3.47,5.84-5.35q48-48,96-96a63.72,63.72,0,0,0,4.83-5A20.68,20.68,0,0,0,347.52,1438.34Zm2440.24-23.44a73.07,73.07,0,0,0,6.57-5.39q49.52-49.38,98.9-98.85a37.71,37.71,0,0,0,3.43-3.62c2.28-3,2.74-6.14-.17-8.94-2.62-2.51-5.48-2-8.1.17a58,58,0,0,0-4.37,4.08q-49.09,49.07-98.15,98.18c-1.87,1.87-3.89,3.8-5.06,6.09C2778.81,1410.56,2782,1415.07,2787.76,1414.9ZM2467.15,525.76c.51,6.51,2.86,10,7.14,11.88,5.2,2.31,9.77.76,13.63-3.08,15.3-15.23,30.66-30.41,45.77-45.84,5.66-5.78,5.62-13.1.71-17.68-4.62-4.32-11.58-4.29-17,1q-23.18,22.62-45.78,45.82C2469.24,520.29,2468.14,524,2467.15,525.76ZM2082,1595c0-6.28-1.63-9.87-5.57-11.81-4.88-2.4-10-2.25-13.92,1.62q-24.15,23.73-47.87,47.9a10.89,10.89,0,0,0-1.78,13.77c2.46,4.08,6.29,6.26,10.9,5.38a17.66,17.66,0,0,0,8.68-4.16q22.83-22.23,45.09-45C2079.9,1600.2,2081.09,1596.59,2082,1595Zm820.12-11.19c.11-10.43-8-15.85-15.89-12.35a16.44,16.44,0,0,0-4.89,3.37c-15.11,15-30.29,30-45.15,45.27-5.69,5.85-5.63,13.23-.82,17.8s11.11,4.47,16.88-1.17q23.19-22.71,45.87-46C2900.28,1588.55,2901.32,1585.23,2902.11,1583.8ZM998.58,1647.93c1.77-1.23,5.59-3.19,8.52-6.06,14-13.73,27.88-27.69,41.72-41.62a27.91,27.91,0,0,0,5-6.15c4.06-7.62-1-16.51-9.62-16.12a17.61,17.61,0,0,0-10.46,4.58c-14.87,14.32-29.35,29-43.9,43.68a20.88,20.88,0,0,0-4.15,5.55C982.15,1639.35,987.81,1648,998.58,1647.93ZM2660.15,507c-.26-6-4.73-8.71-8.74-6.55-2.27,1.22-4.1,3.33-6,5.2q-49,49-98,98c-1.41,1.4-3.51,2.66-4,4.35-.71,2.56-1.29,6.07-.07,8,2.06,3.35,5.76,2.72,8.7.39a69.41,69.41,0,0,0,5.78-5.48q30-30,59.94-59.93c12.45-12.45,25-24.86,37.33-37.4A54.79,54.79,0,0,0,2660.15,507Zm141.36-82.73a51.77,51.77,0,0,0,5.73-4.53q50.48-50.34,100.85-100.79c.94-.94,2.45-1.85,2.6-2.92.38-2.7,1.19-6.44-.18-8s-5.33-1.45-7.82-.81c-2,.51-3.53,2.88-5.17,4.52q-49,49-98,98c-1.86,1.87-3.9,3.79-5,6.09C2792.5,419.88,2795.5,424.2,2801.51,424.22ZM2319.93,256.74c3.26-2.44,6.42-4.26,8.91-6.74q48.78-48.57,97.38-97.31a30.94,30.94,0,0,0,3.9-4.51c1.85-2.73,2.45-6.22-.53-7.94-2.07-1.2-5.63-1-8.05-.07s-4.05,3.33-5.93,5.21q-48,47.94-95.94,95.93c-1.64,1.64-3.67,3.13-4.69,5.11-.94,1.82-1.59,4.6-.84,6.26S2317.54,255.17,2319.93,256.74ZM632.3,80.88c.38,9,8.29,14.18,15.72,10.94a22.38,22.38,0,0,0,6.34-4.71Q675,66.79,695.48,46.3a45.21,45.21,0,0,0,3.36-3.7,22.21,22.21,0,0,0,2.83-4.08,11.2,11.2,0,0,0-2.14-12.91c-3.7-3.65-10-5.24-13.68-1.68C668.17,41,650.94,58.6,633.7,76.16,632.5,77.39,632.57,79.87,632.3,80.88ZM2535.08,1608.81c1.82-1.4,4.89-3.25,7.35-5.71q49.17-49,98.18-98.12a27.25,27.25,0,0,0,4.61-5.2c1.61-2.79,1.86-6.24-1.29-7.88-1.93-1-5-.76-7.19,0s-3.52,3-5.17,4.6q-48.74,48.71-97.43,97.45c-1.88,1.87-4,3.69-5.29,5.93C2526.52,1603.91,2529.06,1608.39,2535.08,1608.81ZM1568,339.41a76.48,76.48,0,0,0,7.36-5.92q48.06-47.88,96-95.92c1.87-1.87,4.18-3.74,5-6.06.78-2.13.74-5.71-.58-7.11s-4.84-1.54-7.07-1c-2,.53-3.74,2.64-5.37,4.28q-48.72,48.63-97.35,97.35a23.59,23.59,0,0,0-4.87,6.22C1559.13,335.56,1562.07,339.73,1568,339.41ZM1197.5,1829c0-4.89-3.66-7.78-7.52-6.12a24.19,24.19,0,0,0-7.08,5.32q-48.39,48.24-96.66,96.63c-1.86,1.87-4,3.83-4.89,6.17-.73,1.84-.61,5.29.59,6.29,1.65,1.37,5.1,2.14,7,1.33,2.9-1.25,5.28-3.91,7.62-6.24q47-46.86,93.85-93.8a49.75,49.75,0,0,0,4.78-5.08A26.29,26.29,0,0,0,1197.5,1829ZM2791.42,252c-1,.33-4.15.43-5.82,2.07-16.34,16-32.59,32.11-48.46,48.58-3.88,4-3.11,8.84.13,12.71a10.91,10.91,0,0,0,13.46,3,29,29,0,0,0,7.11-5.32q19.82-19.59,39.4-39.41a25.35,25.35,0,0,0,5.21-7.17C2805.77,259,2801.2,252.17,2791.42,252ZM662.22,1933.8c1.56-1,5-2.33,7.49-4.74,14.27-14,28.3-28.15,42.4-42.28a21.28,21.28,0,0,0,2.58-3c3.65-5.31,3.34-10.19-.83-14.45a11.38,11.38,0,0,0-14.62-1.07,31.66,31.66,0,0,0-4.45,4Q675,1892,655.29,1911.75a29.41,29.41,0,0,0-5,6.17C646.18,1925.4,651.65,1934,662.22,1933.8ZM351.38,1604c1.89-1.17,6.2-3,9.33-6,12.44-12,24.53-24.31,36.72-36.53a59.77,59.77,0,0,0,6.11-6.54,11.55,11.55,0,0,0-1.15-15.4c-4.69-4.63-10.11-4.63-15.71.86-14.94,14.64-29.64,29.53-44.4,44.35a15.23,15.23,0,0,0-3,4C335.54,1596.47,340.1,1603.76,351.38,1604Zm2382.76-294.2c1.43-.81,4.72-1.88,6.94-4q22.41-21.95,44.4-44.33c5.55-5.65,5.61-11,1-15.71s-11.16-4.84-16.95-.07c-.76.63-1.46,1.35-2.16,2.06q-19.72,19.71-39.43,39.45a24.88,24.88,0,0,0-4.43,5.33C2718.93,1300.91,2723.64,1310,2734.14,1309.8ZM2571.77,316.29c.28-7.6-2.74-11.3-8.46-12.11a14.08,14.08,0,0,0-12.71,4.26c-14.07,14.2-28.27,28.29-42.35,42.48a15.26,15.26,0,0,0-3.36,4.89c-2.91,7.43,2.87,16.58,10.1,15.48a18.61,18.61,0,0,0,9.46-5q21.86-21.26,43.14-43.09C2569.78,321,2570.93,317.73,2571.77,316.29Zm226.48,1475.5c-.32,6.69,1.86,10.28,5.91,12.61,4.28,2.46,8.33,1.58,11.94-1.63,1.24-1.1,2.43-2.27,3.61-3.45q19.8-19.77,39.57-39.57a42.44,42.44,0,0,0,4.66-5.2c2.56-3.63,2.26-7.52.4-11.37a8.56,8.56,0,0,0-10-4.94c-3.39.69-7.22,2-9.62,4.35-14.37,13.89-28.46,28.07-42.43,42.36C2800.16,1787.18,2799,1790.44,2798.25,1791.79ZM274.24,451.55c-.31,6.83,1.87,10.34,5.84,12.78,3.58,2.21,7.15,1.32,10.29-.82a54.24,54.24,0,0,0,7.51-6.47c13.16-13.11,26.43-26.13,39.29-39.53,5.93-6.18,5.8-13.2.75-17.63-4.88-4.29-10.74-3.83-16.75,2.05q-21.32,20.91-42.2,42.25C276.56,446.64,275.16,450.08,274.24,451.55Zm1656.54,24.16c1.53-1,5.1-2.82,7.81-5.47,13.34-13.05,26.46-26.31,39.63-39.53a26.55,26.55,0,0,0,3.91-4.52c3-4.88,2.3-12.56-1.34-15.76-3.92-3.45-10.39-2.91-15.45,1.33-1,.85-1.93,1.83-2.88,2.77Q1943,434,1923.61,453.43a39.14,39.14,0,0,0-5.12,6.1c-2.08,3.21-3,6.76-.83,10.35C1920.11,473.86,1923.62,476.07,1930.78,475.71ZM1498,157.49c-.11-8.85-3.5-13.24-9.58-12.91a17.67,17.67,0,0,0-10.35,4.63c-14.14,13.61-27.9,27.61-41.73,41.54a24.21,24.21,0,0,0-4.24,5.5c-3.76,7,.19,14.39,8.1,15.52,4.72.67,8.34-1.28,11.57-4.53,13.84-13.92,27.85-27.67,41.52-41.76C1495.89,162.82,1497.19,158.92,1498,157.49Zm282,1297.53c3.27-2,7-3.47,9.73-6.07,13.57-13.2,26.91-26.65,40.19-40.15a21.65,21.65,0,0,0,4.88-7.39c2.56-6.92-3-15.24-10.17-14.7-3.21.24-6.77,2.57-9.21,5-14.06,13.66-27.83,27.61-41.67,41.49-1.4,1.4-3.45,2.81-3.79,4.5-.74,3.71-1.53,7.87-.55,11.36C1770.69,1453.35,1775.19,1454,1780.06,1455ZM963.35,1812c1.92-1.18,6.26-2.92,9.38-5.93,13.38-12.92,26.43-26.2,39.55-39.39a25.14,25.14,0,0,0,4.38-5.37,11.67,11.67,0,0,0-3-14.44c-3.87-3.24-7.79-3.33-12.79,0a36,36,0,0,0-5.27,4.54c-12.71,12.66-25.43,25.32-38,38.09a30,30,0,0,0-6,7.85C948.11,1804.82,952.6,1811.72,963.35,1812Zm1222.74-480.6a46.32,46.32,0,0,0,6-4.5q50.2-50,100.28-100.22c1.18-1.17,2.87-2.31,3.2-3.73.46-2,.62-4.88-.5-6.12s-4.42-2.18-6.05-1.5c-2.62,1.09-4.82,3.43-6.92,5.52q-48.76,48.66-97.42,97.43a29.11,29.11,0,0,0-5.13,6.06C2177.46,1328.11,2180.27,1331.83,2186.09,1331.44ZM576.36,1707c-1.32-2.24-1.91-4.55-3.33-5.29s-3.91-.43-5.45.36c-2,1-3.6,2.91-5.24,4.55q-49.1,49-98.13,98.13c-1.64,1.64-3.85,3.28-4.4,5.29a9.7,9.7,0,0,0,1,7.09c1.77,2.68,4.67,2,6.95,0,2-1.76,3.88-3.64,5.76-5.52l57.19-57.18c13.17-13.18,26.39-26.32,39.49-39.58C572.47,1712.52,574.22,1709.73,576.36,1707Zm-70.65-95.36c1.5-.48,4.24-.57,5.77-2,6.32-5.8,12.81-11.56,18.17-18.2,4-4.89,2.19-12-2.4-16.23-4.37-4-11.5-4.92-16.52-.84a126.53,126.53,0,0,0-16.18,16.06c-3.46,4-3.37,9.24-.9,14.08C496,1609.08,500,1611.1,505.71,1611.63ZM2456.1,1257.51c.05-10-10.51-17-18.81-11.41-7,4.75-12.95,11.41-18.41,18-3.34,4-2.73,9.47.56,14a12.62,12.62,0,0,0,12.06,5.62c8.24-.78,24.07-17,24.6-25.24C2456.12,1258.18,2456.1,1257.84,2456.1,1257.51Zm-858-843.6c1-.3,3.82-.3,5.31-1.69,6.51-6.07,13.19-12.11,18.71-19,3.57-4.49,1.56-11.48-2.67-15.37s-11.08-5.25-15.59-1.55c-6.37,5.22-12.69,10.9-17.55,17.48C1580.08,402.17,1586.5,413.59,1598.09,413.91ZM1538.69,1460a8.26,8.26,0,0,0,3.17-.5c9.6-5.1,17.56-12.12,21.74-22.25,2-4.74.63-10-3.81-13.53-4.22-3.38-9.51-5.14-13.8-1.65-6.9,5.6-13.83,11.64-19,18.77C1521.24,1448.8,1528.06,1459.74,1538.69,1460ZM2386.17,22.66c.08-10.53-11-17.33-19.58-11.19-6.66,4.74-12.23,11.21-17.6,17.5-3.24,3.79-2.82,8.78-.32,13.19s6.54,6.54,11.58,6.54C2368.84,48.69,2386.11,31.29,2386.17,22.66Zm-81.38,658.17c1-.24,3.12-.11,4.16-1.1,6.92-6.58,14.3-12.86,20.12-20.33,3.45-4.44.64-11.81-3.69-15.25s-10.56-4.34-14.89-.72A152.28,152.28,0,0,0,2292.9,661c-3.24,3.78-3,8.73-.36,13.17S2299.12,680.65,2304.79,680.83Zm491.45-117c9.38.07,26.85-16.77,27-26.16.08-5.15-2.77-8.73-7-11.32-4.42-2.73-9.22-2.86-13.06.44a155.09,155.09,0,0,0-17,16.72c-3.45,4.05-3,9.44-.59,14.14A11,11,0,0,0,2796.24,563.84ZM128.76,1543.73c9.47-.23,26.49-17.28,26.5-26.18,0-5.52-3.17-9.42-7.69-12-4-2.31-8.72-2.4-12.18.71a177.57,177.57,0,0,0-17.45,17.68c-3.23,3.83-2.32,8.85-.07,13.23C120.24,1541.76,124.36,1543.57,128.76,1543.73Zm1143.4,310c-.18,9.33,11.18,17.35,18.76,12.19a74.34,74.34,0,0,0,18.84-18.64c5.71-8.2-2.16-19.56-12.26-19.15C1290.21,1828.46,1272.3,1846.56,1272.16,1853.76ZM257.94,1777.63c.44-.18,3.34-.59,5.15-2.22a195.58,195.58,0,0,0,16.2-16.12c3.95-4.52,3.32-12-.48-16.56a12.4,12.4,0,0,0-16.25-2.64,54.16,54.16,0,0,0-18.74,20.13C239.85,1767.54,248.38,1778.5,257.94,1777.63Zm84.38-485.5c-1.33.72-4.8,1.95-7.41,4.18a146.48,146.48,0,0,0-12.7,12.59c-4.86,5.31-5.17,10.68-1.36,16.19s11.33,8.31,16.56,4.29c7.18-5.54,14.28-12.08,19-19.68C361.44,1301.57,354.12,1291.89,342.32,1292.13ZM1795.12,1542c-3,.38-4.15.25-5,.66-10.45,5-18.69,12.39-22.87,23.36-2,5.33,1,9.64,5.22,12.84s9.52,4.26,13.78.7a147.78,147.78,0,0,0,17.69-17.24c3.5-4.1,2.92-9.79-.27-13.91C1801.27,1545.27,1797.21,1543.46,1795.12,1542Zm1041,421.75a8.22,8.22,0,0,0,2.51-.5c10-5.13,17.88-12.51,22.51-22.74,2.37-5.24-.83-9.48-4.76-13-4.26-3.85-9.51-4.77-13.63-1.38-6.8,5.61-13.69,11.66-18.65,18.84C2818.7,1952.7,2826.32,1964,2836.1,1963.7Zm-139.54-569.47c-.86.17-2.69.09-4,.86-9.09,5.12-16.57,12.12-21.28,21.42-2.55,5,.2,9.69,4,13.32,4.33,4.12,10.06,5.46,14.47,1.87,6.58-5.38,13.2-11.24,18-18.15C2713.53,1405.18,2707.22,1394.54,2696.56,1394.23ZM1791.77,238.68c-1.35-2-3.18-6.56-6.57-9a11.24,11.24,0,0,0-14,.72c-6,5.21-12,10.7-16.84,17-5.71,7.35-.62,17.38,8.7,18.53C1773.76,267.19,1791.57,251.87,1791.77,238.68ZM691.56,1724.2c.83-7.35-.91-11.49-5.23-14.23-4.68-3-10-2.87-14.09.32a111.76,111.76,0,0,0-16.36,15.82c-3.5,4.17-2.44,13.3.73,16.87s10.81,6,14.48,3c7.09-5.84,13.38-12.67,19.79-19.29C691.86,1725.69,691.71,1723.58,691.56,1724.2Zm-258.2-272.28c1.34-.69,4.85-1.84,7.49-4a114.34,114.34,0,0,0,12-11.91c5.46-6.1,5.79-12.44,1.37-18-3.23-4.08-12.56-6.24-17.34-2.42-6.38,5.09-12.73,10.94-17,17.77C414.3,1442.26,420.79,1452,433.36,1451.92ZM2522.42,184c1-.29,4.09-.36,5.82-2a174,174,0,0,0,17.25-17.74c3.55-4.34,2.65-9.46-.69-13.8a13.45,13.45,0,0,0-18-2.38c-6.28,4.61-12.36,10.23-16.62,16.68C2504.53,173.32,2510.86,183.75,2522.42,184Zm262.3,1370c.94-.32,4-.5,5.76-2.11a167,167,0,0,0,16.66-17c3.87-4.71,3.09-10.15-.57-14.66-3.83-4.71-12.31-6.47-18.1-1.92a72.75,72.75,0,0,0-16.69,18C2766.53,1544.68,2773,1554,2784.72,1554ZM2098.16,202.28c.16,7.79,8.69,15,15.64,12.41a38.41,38.41,0,0,0,22.48-21.25c3.44-8.09-3.59-17.29-12.29-17.28C2116.2,176.17,2098,194.57,2098.16,202.28ZM1468,369.89c1.19-.18,3.37-.05,5.08-.88a45.82,45.82,0,0,0,19.88-19c3.11-5.43.19-13.53-4.71-17-5.2-3.66-10.46-3.19-16.26,2.09a166.24,166.24,0,0,0-13.31,13.5c-3.65,4.16-3.53,9.33-1.56,14.16C1458.9,367.08,1462.44,369.56,1468,369.89ZM999.84,1932.14c-.57.1-3.11-.19-4.35.95-6.32,5.78-12.83,11.5-18.19,18.12-3.29,4-1.39,12.88,1.81,15.74,4.12,3.67,13.14,4.44,17.68.63a127.7,127.7,0,0,0,14.77-14.74c3.53-4.14,3.26-9.42,1-14.14C1010.45,1934.14,1006.42,1931.91,999.84,1932.14ZM2723.93,417.58c-.8-6.15-2.58-10.52-7.36-12.46s-10-2-14.12,1.72c-5.42,4.91-10.54,10.17-15.55,15.51-3.33,3.54-3.3,7.82-1.44,12.14,3.43,7.92,13,10.43,20.05,4.61a155.83,155.83,0,0,0,15.54-15.51C2722.71,421.77,2723.29,419,2723.93,417.58Z" transform="translate(-2 -2)"/><path class="cls-2" d="M582.31,534c-4.79-1-9.82-1.46-14.33-3.22-8.19-3.2-16.08-7.18-24.1-10.84q21.58-22,43.14-44c2.09-2.13,4.72-4.1,5.81-6.68.81-1.95.38-5.59-1-7s-5-1.8-7-1c-2.59,1.09-4.57,3.72-6.69,5.8q-22,21.56-44,43.18L519.92,499.9c-1.22-4.39-2.06-8.93-3.71-13.16-11-28.07-9.07-54.78,8.6-79.61,4-5.64,9.23-10.47,14.16-15.41Q714.05,216.55,889.14,41.4c3.46-3.46,6.18-7.67,9.25-11.53,7.19-6.31,14.55-12.44,21.49-19C922.43,8.44,924,5,926,2h104c-2.25,3.09-4.14,6.54-6.81,9.21Q886.48,148.1,749.65,284.88c-2.36,2.35-5.35,4.49-6.63,7.36a9.56,9.56,0,0,0,.76,8c1.9,2.77,5.32,2.25,8,.05,1.79-1.49,3.43-3.16,5.08-4.81Q899.64,152.64,1042.4,9.77c2.23-2.23,3.75-5.16,5.6-7.77h38a70.27,70.27,0,0,1-5,6.14Q944.7,144.57,808.29,280.93a100.26,100.26,0,0,0-8.92,9.42c-11.91,15.43-7.17,35.12,10.35,43.55,2.1,1,4.3,1.8,6.46,2.69-2.62,3.36-4.93,7-7.9,10-18.89,19.07-38,37.94-56.83,57.06-2.93,3-5,6.83-7.39,10.27-3.7,2.7-7.82,5-11,8.15-28.31,28.09-56.84,56-84.53,84.66C630.15,525.76,607.93,533.56,582.31,534Zm54.46-118.34c1.19-.41,3.87-.61,5.44-2,6.14-5.54,12.34-11.12,17.71-17.37,3.62-4.21,2.42-11.5-1.26-15.7s-10.68-6.36-15.35-2.74c-7,5.42-13.84,11.56-18.95,18.69C618.87,404.13,626.4,415.84,636.77,415.64Z" transform="translate(-2 -2)"/><path class="cls-3" d="M898.39,29.87c-3.07,3.86-5.79,8.07-9.25,11.53Q714.11,216.62,539,391.72c-4.93,4.94-10.15,9.77-14.16,15.41-17.67,24.83-19.6,51.54-8.6,79.61,1.65,4.23,2.49,8.77,3.71,13.16q-25.53,25.25-51.06,50.49c-11.95,11.79-26.11,19.31-42.78,21.88-27.61,4.27-51.23-3.5-70.76-23.53-3.24-3.32-6.3-6.82-9.45-10.23l-11.3-27.45c0-10-1.09-20.1.21-29.9,2.29-17.36,10.71-31.89,23.2-44.34Q468.79,326.31,579.33,215.56q90.51-90.51,181-181C772.1,22.77,783.4,10.48,798,2h70l8.66,5.63Q887.52,18.76,898.39,29.87Zm-300,214.52c-.39,9.79,7.42,15.48,15,12.43a23.22,23.22,0,0,0,7.24-5.13q19.89-19.62,39.51-39.52a23.67,23.67,0,0,0,5.09-7.27c1.72-4.2,1.87-9.17-2.1-11.86-3-2-7.29-2.66-11-2.63-2.25,0-4.86,2.1-6.67,3.89-14.22,14-28.37,28.09-42.3,42.38C600.66,239.16,599.34,242.71,598.34,244.39Z" transform="translate(-2 -2)"/><path class="cls-4" d="M2194.1,1896.15c-2.5,3.43-4.61,7.25-7.56,10.24-18.19,18.45-36.61,36.68-54.87,55.06-2.71,2.73-5,5.86-7.17,8.39l23.86,20.39L2140,2002H1890a84,84,0,0,1,1.54-9.8c4-14.48,11.68-26.6,22.33-37.23q119.6-119.29,238.93-238.83,58.66-58.67,117.26-117.39c2.91-2.93,4.88-6.81,7.29-10.25,3.49-2.45,7.4-4.48,10.4-7.42,15-14.69,29.53-29.86,44.67-44.4,27.36-26.27,68.81-30.07,100.94-7.61,1.86,1.3,3.19,3.34,4.77,5-2.68,2.94-5.25,6-8.06,8.8Q2279.56,1693.48,2129,1844a95.69,95.69,0,0,0-6.9,7.21c-2.16,2.65-2.16,5.58.35,8.1a5.65,5.65,0,0,0,8.12.47,86.89,86.89,0,0,0,7.24-6.87q150.55-150.53,301.1-301.06c2.81-2.81,5.86-5.38,8.79-8.06,2.7,3.27,5.58,6.42,8,9.86s4.56,7.25,6.81,10.89c-3.23,3.35-6.41,6.76-9.71,10q-132.75,132.8-265.52,265.57a90.71,90.71,0,0,0-9.44,10.28c-10.62,14.56-6.49,33.1,9.14,42C2189.35,1893.75,2191.74,1894.92,2194.1,1896.15Zm-192,66c.28,9.44,11,16.56,18.21,11.17a90.12,90.12,0,0,0,19.37-19.67c5.13-7.19-.49-16.6-9.24-17.6C2019.61,1934.81,2001.8,1951.22,2002.12,1962.15Z" transform="translate(-2 -2)"/><path class="cls-3" d="M2277.35,1588.5c-2.41,3.44-4.38,7.32-7.29,10.25q-58.51,58.82-117.26,117.39Q2033.37,1835.59,1913.87,1955c-10.65,10.63-18.38,22.75-22.33,37.23a84,84,0,0,0-1.54,9.8H1734c2-2.94,3.55-6.27,6-8.76,11.39-11.69,23-23.15,34.55-34.69q186.49-186.49,373-373c4.47-4.47,8.79-9.18,13.74-13.07,18.12-14.23,38.58-20.5,61.66-17.13,2,.29,4,.4,5.95.6l26.55,11Zm-231.71,172.91c0-6.19-2.23-9.27-6-11.37-4.71-2.62-9.13-1.8-12.78,1.82-15.34,15.17-30.72,30.31-45.7,45.82-5.44,5.64-5.12,11.37-.59,15.89,4.89,4.9,10.94,5,16.74-.62q22.13-21.56,43.66-43.7C2043.38,1766.78,2044.62,1763.19,2045.64,1761.41Z" transform="translate(-2 -2)"/><path class="cls-3" d="M816.18,336.59c-2.16-.89-4.36-1.68-6.46-2.69-17.52-8.43-22.26-28.12-10.35-43.55a100.26,100.26,0,0,1,8.92-9.42Q944.67,144.54,1081.05,8.14A70.27,70.27,0,0,0,1086,2h78c-2.38,3.42-4.31,7.28-7.21,10.18q-87.84,88.11-175.88,176c-45,45-90.12,89.85-134.85,135.09C837.54,331.9,828.34,337.1,816.18,336.59Z" transform="translate(-2 -2)"/><path class="cls-4" d="M345.92,319.86c-3.44,2.53-7.11,4.79-10.26,7.63-12.58,11.39-31.83,11.39-43.25-.19s-11.22-30.81.49-43.21c2.28-2.42,4.69-4.73,7-7.08Q428.06,148.89,556.23,20.85C563,14.09,570.72,8.26,578,2h32c-2.13,2.84-4,6-6.44,8.46-15.86,16.06-31.87,32-47.79,48-2.09,2.09-4.63,4.19-5.61,6.8-.74,2-.12,5.65,1.34,7s5,1.17,7,.32c2.29-1,4-3.41,5.86-5.27Q589.2,42.82,614,18.39c6.76,16.62,4.94,25.74-8,38.64Q532.34,130.8,458.62,204.57c-3.23,3.24-5.83,7.13-8.72,10.72-7.82.15-13.58,4-19,9.45q-37.4,37.84-75.25,75.22C350,305.62,346.26,311.79,345.92,319.86Z" transform="translate(-2 -2)"/><path class="cls-3" d="M2134,2c-2.4,3.44-4.36,7.31-7.27,10.24q-41.89,42.24-84.06,84.19L1793.12,346a77.59,77.59,0,0,1-8,7.53A13.24,13.24,0,0,1,1766.58,335a75.63,75.63,0,0,1,7.53-8q157.28-157.3,314.55-314.61c3.28-3.28,6.23-6.89,9.34-10.35Z" transform="translate(-2 -2)"/><path class="cls-3" d="M314,2c-2,2.94-3.61,6.29-6.09,8.76Q174.53,144.35,41,277.79A44.49,44.49,0,0,1,35,283.1c-5.82,4-12.7,3.41-17.41-1.16a13.36,13.36,0,0,1-1.85-16.56c2.48-3.86,5.9-7.18,9.17-10.47q121.44-121.53,242.91-243c3-3,5.44-6.58,8.14-9.89Z" transform="translate(-2 -2)"/><path class="cls-4" d="M2506,1984c7.43-7.15,14.95-14.21,22.28-21.46,12.56-12.41,25.25-24.7,37.42-37.47,18.16-19,52.66-16.43,69.31-1,20.09,18.62,22.8,48.37,6.3,69.64-2,2.58-3.55,5.51-5.31,8.28H2518C2516.38,1994.41,2512.06,1988.63,2506,1984Z" transform="translate(-2 -2)"/><path class="cls-3" d="M2669.59,1726.7c2-1.71,4-3.57,6.14-5.08,6.37-4.44,13.14-3.83,18,1.45s5,11.83,0,18a95.57,95.57,0,0,1-6.92,7.18q-122.06,122.07-244.1,244.14c-3,3-5.8,6.37-8.7,9.56h-30c2.56-3,4.93-6.15,7.7-8.93q124.88-125,249.82-249.87c1.64-1.64,3.17-3.43,5-4.91C2670.3,1735.12,2671.26,1731.29,2669.59,1726.7Z" transform="translate(-2 -2)"/><path class="cls-5" d="M1048,2c-1.85,2.61-3.37,5.54-5.6,7.77Q899.68,152.68,756.82,295.44c-1.65,1.65-3.29,3.32-5.08,4.81-2.64,2.2-6.06,2.72-8-.05a9.56,9.56,0,0,1-.76-8c1.28-2.87,4.27-5,6.63-7.36Q886.44,148.07,1023.19,11.21c2.67-2.67,4.56-6.12,6.81-9.21Z" transform="translate(-2 -2)"/><path class="cls-5" d="M2,1708c4.71,1.61,6.3-2.67,8.6-4.94,20.11-19.87,40.05-39.92,60.05-59.9a66.41,66.41,0,0,1,6.53-6.15,19.78,19.78,0,0,1,28.23,27,54,54,0,0,1-6.66,7.39c-22.55,22.61-45.35,45-67.6,67.86-8.29,8.54-16.65,16-29.15,16.73Z" transform="translate(-2 -2)"/><path class="cls-3" d="M2,1534c3.45-2.38,7.36-4.3,10.29-7.21q51.35-51,102.45-102.29a60.58,60.58,0,0,1,8.14-7.33c5.81-4,12.4-3,17.19,2a12.54,12.54,0,0,1,1.28,16.45,75.87,75.87,0,0,1-8.55,9.74q-61,61.13-122.15,122.12C8.11,1570,4.9,1571.83,2,1574Z" transform="translate(-2 -2)"/><path class="cls-6" d="M2669.59,1726.7c1.67,4.59.71,8.42-3.11,11.59-1.79,1.48-3.32,3.27-5,4.91q-124.93,124.92-249.82,249.87c-2.77,2.78-5.14,6-7.7,8.93h-18c1.92-2.26,3.7-4.66,5.79-6.74q131.65-131.73,263.34-263.42C2659.2,1727.77,2662.92,1723.22,2669.59,1726.7Z" transform="translate(-2 -2)"/><path class="cls-4" d="M1526,2002c1.73-2.76,3-5.94,5.27-8.21,16.58-16.83,33.36-33.46,50-50.18,7.66-7.68,16.63-10.67,27.24-7.72,11.78,3.28,18.66,11,20.63,23.08,1.58,9.66-2.55,17.56-8.24,24.76-2.66,3.37-6.22,6-9,9.33-2.28,2.73-4,5.94-6,8.94Z" transform="translate(-2 -2)"/><path class="cls-3" d="M526,2c-2.12,2.9-3.91,6.12-6.42,8.64q-46.41,46.63-93,93.09a43.06,43.06,0,0,1-5.92,5.31,13.46,13.46,0,0,1-18.87-18.69A54,54,0,0,1,408.44,83Q444.37,47,480.3,11c2.78-2.8,5.14-6,7.7-9Z" transform="translate(-2 -2)"/><path class="cls-5" d="M240,2002c1.23-1.86,2.19-4,3.73-5.54q31.61-31.8,63.37-63.43a39,39,0,0,1,4.43-4,20,20,0,0,1,25.6,1.53,19.66,19.66,0,0,1,2,26.28,56.28,56.28,0,0,1-5.41,5.84c-10.55,10.58-21.18,21.09-31.66,31.74A91.51,91.51,0,0,0,296,2002Z" transform="translate(-2 -2)"/><path class="cls-5" d="M140,2c-.85,1.66-1.35,3.68-2.6,4.94Q110.78,33.79,84,60.45a29.75,29.75,0,0,1-3,2.65c-8.79,6.74-19.7,6.09-27-1.56-7-7.38-7.84-18.15-.91-26.24C59.52,27.76,67,21.1,73.83,13.89,77.42,10.11,80.62,6,84,2Z" transform="translate(-2 -2)"/><path class="cls-4" d="M3002,36c-3.22,2.88-6.59,5.6-9.64,8.65Q2940,96.88,2887.75,149.19c-2.35,2.35-4.52,5.24-7.38,6.62-2.23,1.08-6,1.16-8,0-3-1.73-2.4-5.28-.49-8a47.36,47.36,0,0,1,5.31-5.94q57.57-57.62,115.23-115.13c2.73-2.72,6.39-4.51,9.61-6.74Z" transform="translate(-2 -2)"/><path class="cls-4" d="M3002,1012c-3.2,2.89-6.53,5.66-9.58,8.7q-59.36,59.27-118.64,118.58c-2.35,2.34-4.52,5.22-7.38,6.6-2.24,1.08-6.07,1.23-8,0-3.23-2.07-1.49-5.31.6-7.72,1.74-2,3.66-3.86,5.55-5.74q63.18-63.2,126.43-126.31c3.2-3.18,7.34-5.41,11-8.09Z" transform="translate(-2 -2)"/><path class="cls-5" d="M2325.53,1993.77c.16,2.74.31,5.49.47,8.23h-80c8.31-8.46,16.52-17,25-25.37,12.21-12.06,23.76-13.94,39.57-6.76a15.71,15.71,0,0,1-1.36,2.53c-3.91,4.82-4.57,10.1-1.68,15.5,3,5.59,8.11,7.17,14.15,6.33C2322.94,1994.05,2324.24,1993.92,2325.53,1993.77Z" transform="translate(-2 -2)"/><path class="cls-5" d="M2682,2c-1.78,2.32-3.33,4.88-5.38,6.93Q2634,51.68,2591.3,94.28c-1.87,1.87-3.68,4.31-6,5.08-2.08.7-5.66.28-7-1.14s-1.47-5-.58-7c1.16-2.58,3.75-4.56,5.86-6.67q37-37,74-74.11C2660,8,2661.87,4.83,2664,2Z" transform="translate(-2 -2)"/><path class="cls-3" d="M1524,2c-1.47,2.46-2.54,5.31-4.49,7.31C1508.86,20.24,1498,31,1487.17,41.74a27.32,27.32,0,0,1-5.35,4.39,10.94,10.94,0,0,1-13.69-1.79c-3.76-3.78-4.76-9-2-13.68,1.67-2.79,4.15-5.13,6.38-7.57C1479,16,1485.51,9,1492,2Z" transform="translate(-2 -2)"/><path class="cls-7" d="M2140,2002l8.36-11.77c3.16-2.37,6.58-4.47,9.42-7.19,7.45-7.13,14.69-14.49,21.93-21.83,3.18-3.22,6.62-5.51,11.41-5.06,8.4.79,12.81,8.62,8.6,15.87-1.64,2.83-4.12,5.2-6.39,7.61-7.06,7.5-14.21,14.92-21.33,22.37Z" transform="translate(-2 -2)"/><path class="cls-7" d="M1660,2002q20.24-20.65,40.48-41.3a14.12,14.12,0,0,1,2.37-1.83c5-3.22,10.06-3.21,13.88,0,3.52,2.94,4.56,10,1.73,14.72-1.52,2.52-3.79,4.6-5.84,6.77-6.84,7.24-13.74,14.43-20.62,21.64Z" transform="translate(-2 -2)"/><path class="cls-4" d="M3002,1868c-4.15,3.81-8.43,7.5-12.43,11.47q-23.34,23.17-46.56,46.51c-1.64,1.64-3.09,3.71-5.06,4.74s-6.08,2.35-6.86,1.46a10.73,10.73,0,0,1-2.26-7.78c.34-2.32,2.52-4.6,4.34-6.44q30.59-30.76,61.37-61.32c2-2,4.95-3.11,7.46-4.64Z" transform="translate(-2 -2)"/><path class="cls-4" d="M1714,2c-2,3-3.6,6.38-6.08,8.89q-28.08,28.44-56.49,56.58c-1.87,1.87-3.77,4.2-6.1,5-2.12.71-5.73.45-7-.94s-1.49-5.07-.63-7.09c1.11-2.61,3.63-4.68,5.73-6.8,15-15.11,30.21-30.09,45.14-45.31,2.94-3,5-6.85,7.48-10.31Z" transform="translate(-2 -2)"/><path class="cls-5" d="M614,18.39q-24.81,24.42-49.62,48.83c-1.89,1.86-3.57,4.31-5.86,5.27-2,.85-5.61.93-7-.32s-2.08-5-1.34-7c1-2.61,3.52-4.71,5.61-6.8,15.92-16,31.93-31.9,47.79-48C606,8,607.87,4.84,610,2h18Z" transform="translate(-2 -2)"/><path class="cls-7" d="M2,174c4.65-3.63,9.64-6.91,13.86-11a17,17,0,0,1,14.54-4.93c9,1,14.46,10.17,9.33,17.49a88.13,88.13,0,0,1-18,18.44c-2.73,2.13-8.2,1.2-12.36.88C6.85,194.71,4.45,193,2,192Z" transform="translate(-2 -2)"/><path class="cls-3" d="M2952,2002c-2.66-9,.15-16.06,7.24-21.89,3.05-2.5,5.53-5.68,8.52-8.26,6-5.2,13.72-5.22,18.74-.3s5.16,12.81.12,18.77c-3.39,4-7.07,7.8-10.62,11.68Z" transform="translate(-2 -2)"/><path class="cls-7" d="M3002,1332c-2.76,2.37-5.43,4.86-8.31,7.07-5,3.8-12.38,3.89-16.63.41-4.88-4-6.82-11.68-2.83-17.08,7-9.54,14.17-19.55,27.77-20.4Z" transform="translate(-2 -2)"/><path class="cls-7" d="M84,2002c9.2-9.5,18.22-19.18,27.66-28.43,4.47-4.38,9.13-4.34,13.43-1.1,4.63,3.47,6,8.65,3.34,14.12-1.3,2.61-3.55,4.73-5.22,7.18-1.83,2.68-3.48,5.48-5.21,8.23Z" transform="translate(-2 -2)"/><path class="cls-3" d="M1104,2002c1.6-3.84,2.56-8.16,5-11.42,3.1-4.21,7.18-7.77,11.12-11.28,6.73-6,13.88-6.12,19.49-.63,5.3,5.2,5.36,11.8.13,18.69-1.19,1.57-2.46,3.09-3.69,4.64Z" transform="translate(-2 -2)"/><path class="cls-5" d="M898.39,29.87Q887.53,18.76,876.67,7.63L880,2h46c-2,3-3.57,6.44-6.12,8.86C912.94,17.43,905.58,23.56,898.39,29.87Z" transform="translate(-2 -2)"/><path class="cls-7" d="M2506,1984c6.06,4.62,10.38,10.4,12,18h-46c1.46-1.81,3-3.59,4.39-5.42C2483.93,1986.89,2493.53,1982.07,2506,1984Z" transform="translate(-2 -2)"/><path class="cls-7" d="M424,2c-3,8.22-9.6,13.58-16.29,18.17-8.34,5.71-18.59-.06-19.59-10.22C387.86,7.32,388,4.65,388,2Z" transform="translate(-2 -2)"/><path class="cls-3" d="M3002,1432c-1.32-.08-2.64-.18-4-.22-5.76-.18-10.35-2.41-12.72-7.88-2.48-5.71-1.6-11.29,2.68-15.66s9.3-8.19,14-12.24Z" transform="translate(-2 -2)"/><path class="cls-7" d="M3002,352a14.35,14.35,0,0,1-11.65-4.63c-5.4-5.7-6-11.91-.7-17.78,3.76-4.18,8.21-7.75,12.35-11.59Z" transform="translate(-2 -2)"/><path class="cls-8" d="M3002,434c-5.63-5.43-5.63-8.14,0-16Z" transform="translate(-2 -2)"/><path class="cls-9" d="M880,2l-3.33,5.63C873.77,5.76,870.89,3.88,868,2Z" transform="translate(-2 -2)"/><path class="cls-3" d="M2194.1,1896.15c-2.36-1.23-4.75-2.4-7.06-3.71-15.63-8.89-19.76-27.43-9.14-42a90.71,90.71,0,0,1,9.44-10.28q132.75-132.81,265.52-265.57c3.3-3.29,6.48-6.7,9.71-10l73.78-73.24c3.07-3,6-6.24,9.27-9.1,12.27-10.87,28.66-10.7,39.66.27,10.73,10.7,11.11,26.58.77,38.87-3,3.57-6.31,6.87-9.61,10.17q-173.54,173.57-347.09,347.11c-1.18,1.18-2.42,2.3-3.54,3.54C2217.33,1891.57,2207.13,1897.08,2194.1,1896.15Z" transform="translate(-2 -2)"/><path class="cls-7" d="M2144.19,1534.21l-10.68-5.45c-28.27-14.45-37.38-55.7-12.31-80.87q80-80.37,160.48-160.36c15.21-15.07,34.17-16.42,54-11.2,3.52.93,6.87,2.49,10.3,3.76l9.94,8.52c.76,1.47,1.24,3.19,2.31,4.37,15.22,16.63,12.19,52.29-5.26,69.39-52.7,51.68-104.58,104.21-156.77,156.42-8.48,8.47-18.31,14.19-30.49,15.25,3.12-3.45,6.1-7,9.38-10.34q68.52-68.61,137.08-137.18c2.81-2.81,5.78-5.7,7.62-9.13.92-1.73.29-5.61-1.12-6.9s-5.13-1.45-7-.49c-2.85,1.46-5.05,4.24-7.41,6.6q-74.6,74.55-149.21,149.08C2151.82,1528.91,2147.83,1531.38,2144.19,1534.21Z" transform="translate(-2 -2)"/><path class="cls-7" d="M2326,1866.16c-1.13-17.06,5.13-30.69,17.34-42.76q78.42-77.6,156.11-156c12.17-12.2,26.72-17,43.55-15.15,3.81.43,7.44,2.51,11.15,3.83-2.42,2.7-4.75,5.49-7.28,8.07-7,7.09-14.22,13.92-21,21.2-6.56,7-7.36,16-2.76,23.84a18.78,18.78,0,0,0,21.4,8.81c4.22-1.17,8.33-4,11.63-7,9.52-8.7,18.6-17.87,27.85-26.86,8.78,24,1,43.71-16.08,60.8q-74.47,74.65-149.17,149.1c-9.28,9.23-19.64,17.09-33.25,19-20.54,2.93-37.4-3.34-50-20-2.2-2.91-3.88-6.21-5.8-9.33,2.59-3.39,4.84-7.12,7.81-10.13,18.93-19.15,38.06-38.11,57-57.21,5.65-5.69,6.5-9.79,3.12-12.65-3-2.56-6.54-1.61-11.93,3.73-14.64,14.52-29.13,29.17-43.77,43.68C2336.74,1856.29,2331.3,1861.17,2326,1866.16Z" transform="translate(-2 -2)"/><path class="cls-7" d="M948,306.14c-4.22-7.39-1.33-14.76,1.84-21,4.32-8.48,9.5-17,16.14-23.75q74.09-75,149.08-149.13A87.38,87.38,0,0,1,1137,97c12.46-6.31,25.73-5.89,38.79-1-1.72,2-3.34,4.06-5.19,5.92-7.91,8-16.1,15.76-23.77,24s-7.4,20.27.05,27.8c7.65,7.72,19,7.92,27.77.37,2.25-1.93,4.24-4.18,6.39-6.25q11.4-11,22.83-22c8.26,17.9,4.59,34.26-6.54,49.59a45.07,45.07,0,0,1-4.82,5.06C1139.79,233.26,1086.7,285.68,1034.47,339c-16.55,16.9-49.36,21.64-69.94,3.69-5.87-5.12-9.82-12.43-14.65-18.74,2.66-3,5.17-6.08,8-8.9q27.48-27.61,55.06-55.15a62.92,62.92,0,0,0,6.58-7.47c1.92-2.67,2.11-5.66-.66-8.07s-5.56-2-8.12.23c-2.28,1.94-4.38,4.08-6.52,6.19Z" transform="translate(-2 -2)"/><path class="cls-5" d="M946,434.35c1.47,11.74-4.08,20.27-12,28.19Q826.46,569.8,719.14,677.28,693,703.43,666.88,729.59c-6.37,6.4-13.63,10.5-22.9,10.59-12.51.13-22-5.24-27.82-16.11-6.1-11.3-4.95-22.52,2.44-32.94a65.84,65.84,0,0,1,7.45-8.06Q757.81,551.28,889.56,419.49c5.48-5.49,11.14-10.36,19-12.33,8.31-2.09,15.81-.13,23.18,3.38-1.37,2.21-3,4.29-4.05,6.65a12.57,12.57,0,0,0,8.79,17.53C939.45,435.4,942.81,434.52,946,434.35Z" transform="translate(-2 -2)"/><path class="cls-4" d="M1725.41,1879.74c-3.16,2.38-6.31,4.77-9.47,7.14-10.09,7.61-20.93,11.92-33.5,6.75-19-7.8-25.15-32.45-12.21-48.54a101.3,101.3,0,0,1,7.61-7.91q129.69-129.71,259.17-259.59c14.57-14.71,29.25-19.88,48.18-10.91l-48.94,49.59c-1.87,1.89-3.8,3.72-5.6,5.67-2.78,3-3.94,6.39-.53,9.6s6.71,1.66,9.63-1.09c1.94-1.82,3.78-3.74,5.67-5.6l48.24-47.45c.78,3.9,1.83,7.77,2.29,11.71,1.31,11.33-2.45,20.56-10.68,28.71-36.67,36.29-73,72.88-109.52,109.36-12.71,12.71-25.46,25.38-38.1,38.16-2.79,2.82-5.2,6-7.78,9-8.38.57-14.83,4.44-20.73,10.43q-36.71,37.31-74,74C1729.17,1864.74,1725.12,1871.12,1725.41,1879.74Z" transform="translate(-2 -2)"/><path class="cls-4" d="M1127.49,424.27c19-19.15,37.5-38.82,57.12-57.31,18.38-17.32,41.94-20,62.74-8.15,15.22,8.65,23.27,22.08,24.81,39.74S1267.5,430,1255,442.33c-37,36.44-74,72.93-110.13,110.3-16.84,17.43-49.1,21.5-70.13,4.61-7.84-6.3-12.11-14.85-16.85-23.22,2.6-3,5-6.15,7.82-8.95q28.07-28.22,56.24-56.29c3.51-3.52,7.17-6.92,10.47-10.63,7.57-8.52,7.65-19.38.4-28C1131.12,428.14,1129.27,426.23,1127.49,424.27Z" transform="translate(-2 -2)"/><path class="cls-4" d="M582.31,534c25.62-.42,47.84-8.22,66.19-27.22,27.69-28.69,56.22-56.57,84.53-84.66,3.21-3.18,7.33-5.45,11-8.15,10.36,2.54,17.86,9.61,25.72,16.14a24.53,24.53,0,0,1-2.58,4.15c-3.86,4.09-8.2,7.77-11.76,12.1-4.67,5.69-4.36,13,.09,17.13,4,3.69,11,3.41,16.39-.73,2.09-1.62,4-3.45,6-5.18,4.06,13.81-1.73,25.22-8.93,36.24a29.46,29.46,0,0,1-4.09,4.36q-57.52,57.55-115.11,115.07a50.67,50.67,0,0,1-56.31,10.53c-25.75-11.15-41-44.19-23.21-73.9C573.68,544.19,578.28,539.25,582.31,534Z" transform="translate(-2 -2)"/><path class="cls-3" d="M2173.58,1290.56c-.75,1.65-1.73,4.87-3.54,7.52s-4.46,4.92-6.81,7.28q-177.78,177.8-355.57,355.56a73.3,73.3,0,0,1-7.25,6.86c-5.58,4.25-12.63,4-17.47-.33-5.21-4.65-6.1-12-1.89-18.11a48.41,48.41,0,0,1,6-6.67q178.83-178.87,357.7-357.68c2.58-2.57,5.22-5.32,8.34-7.06C2162.32,1272.75,2173.3,1278.83,2173.58,1290.56Z" transform="translate(-2 -2)"/><path class="cls-3" d="M1297.34,1956.26c-11.13-.31-17-11.24-11.37-20.26a40.46,40.46,0,0,1,6-6.69q179.85-179.88,359.72-359.73a46.78,46.78,0,0,1,5.1-4.77c5.54-4.09,12.75-3.77,17.45.59,4.9,4.56,5.54,12.39,1.25,18.2a52.56,52.56,0,0,1-5.45,5.83l-359,359C1307,1952.49,1303.16,1956.88,1297.34,1956.26Z" transform="translate(-2 -2)"/><path class="cls-5" d="M2255.44,1567l-26.55-11c2.39-2.75,4.61-5.66,7.18-8.23q169.3-169.38,338.67-338.71c1.65-1.65,3.24-3.37,5-4.87,6.61-5.54,14.49-5.48,19.7.07,4.95,5.28,4.82,12.77-.53,19-2.17,2.51-4.65,4.77-7,7.13L2261,1561.23C2259.14,1563.11,2257.3,1565,2255.44,1567Z" transform="translate(-2 -2)"/><path class="cls-3" d="M1290.16,167.27c2.35-1.85,4.53-4,7.09-5.49,6.35-3.71,14-2.36,18.07,2.88,3.92,5,3.66,11.94-.84,17.45-1.68,2-3.67,3.86-5.55,5.74q-178.74,178.77-357.5,357.51c-.94.94-1.87,1.9-2.84,2.82q-15.2,14.37-25.23-4.52c2.68-2.94,5.26-6,8.07-8.8q175.23-175.28,350.48-350.51c2.12-2.12,4.17-4.32,6.36-6.35C1291.65,174.86,1292.46,171.36,1290.16,167.27Z" transform="translate(-2 -2)"/><path class="cls-4" d="M108.6,544c-12,1.15-19.65-5.49-24.81-15.11-4.73-8.83-2.14-23.49,5-30.66Q146.26,440.51,204,383.05c10.11-10,28-9.55,38.12.28,10.39,10,11,28.38.67,38.82C204.53,460.68,166,499,127.69,537.41,122.29,542.84,115.91,544.6,108.6,544Z" transform="translate(-2 -2)"/><path class="cls-5" d="M1290.16,167.27c2.3,4.09,1.49,7.59-1.89,10.73-2.19,2-4.24,4.23-6.36,6.35Q1106.67,359.6,931.43,534.86c-2.81,2.81-5.39,5.86-8.07,8.8L867.2,599.08a65.23,65.23,0,0,1-5.77,5.52c-2.94,2.26-6.2,2.67-8.95-.29-2.42-2.61-1.93-5.55.14-8.16a62.29,62.29,0,0,1,4.81-5.08q209.18-209.21,418.38-418.38C1279.75,168.75,1283.29,163.54,1290.16,167.27Z" transform="translate(-2 -2)"/><path class="cls-3" d="M593.06,903.68c-10.14,0-16.44-10.93-11.38-20.18a35.51,35.51,0,0,1,6.35-7.65q88.66-88.77,177.43-177.44a39.44,39.44,0,0,1,7.64-6.35,13.11,13.11,0,0,1,16.4,2.73c4.41,4.75,5,10.92,1.23,16.5a47.23,47.23,0,0,1-6,6.7q-88.69,88.75-177.43,177.46C603.32,899.47,599.4,903.67,593.06,903.68Z" transform="translate(-2 -2)"/><path class="cls-5" d="M2447.72,1543.8c-2.93,2.68-6,5.25-8.79,8.06q-150.57,150.51-301.1,301.06a86.89,86.89,0,0,1-7.24,6.87,5.65,5.65,0,0,1-8.12-.47c-2.51-2.52-2.51-5.45-.35-8.1a95.69,95.69,0,0,1,6.9-7.21q150.53-150.55,301.05-301.1c2.81-2.81,5.38-5.86,8.06-8.8,2.7-2.45,5.51-4.78,8.08-7.35q49.5-49.41,98.94-98.88c2.12-2.11,4.08-4.71,6.66-5.91a8.78,8.78,0,0,1,7.15.32c2.9,1.73,3.12,5.1,1.07,7.89a59,59,0,0,1-6.06,6.6q-49.44,49.48-98.88,98.94C2452.52,1538.3,2450.17,1541.1,2447.72,1543.8Z" transform="translate(-2 -2)"/><path class="cls-5" d="M345.92,319.86c.34-8.07,4-14.24,9.77-19.9q37.9-37.33,75.25-75.22c5.38-5.43,11.14-9.3,19-9.45,12,1.62,19.35,11.41,18.23,22.21-.63,6-3.84,10.44-7.93,14.52q-26.15,26-52.19,52.17c-8,8-16.52,15.52-23.85,24.07C371.58,342.94,351.07,339.83,345.92,319.86Z" transform="translate(-2 -2)"/><path class="cls-5" d="M1725.41,1879.74c-.29-8.62,3.76-15,9.75-20.9q37.23-36.77,74-74c5.9-6,12.35-9.86,20.73-10.43a68.57,68.57,0,0,1,6.49,2.51,19.66,19.66,0,0,1,7.64,28.91,45.52,45.52,0,0,1-5.92,6.74c-24.95,25-49.82,50.09-75,74.84-3.87,3.79-9,7.36-14.08,8.62C1738,1898.71,1730.38,1892.84,1725.41,1879.74Z" transform="translate(-2 -2)"/><path class="cls-7" d="M1127.49,424.27c1.78,2,3.63,3.87,5.34,5.89,7.25,8.61,7.17,19.47-.4,28-3.3,3.71-7,7.11-10.47,10.63q-28.12,28.14-56.24,56.29c-2.79,2.8-5.22,6-7.82,8.95-4.27,3.14-8.25,6.83-12.87,9.3-9.29,5-17.65,2.64-24.62-6.07-6-7.49-6.07-15.73,1-23.46q18.8-20.62,38.47-40.44c13.83-13.89,28.37-27.07,42.17-41C1109.34,425,1117.73,423,1127.49,424.27Z" transform="translate(-2 -2)"/><path class="cls-5" d="M2584,1684.18c-9.25,9-18.33,18.16-27.85,26.86-3.3,3-7.41,5.84-11.63,7a18.78,18.78,0,0,1-21.4-8.81c-4.6-7.79-3.8-16.79,2.76-23.84,6.77-7.28,14-14.11,21-21.2,2.53-2.58,4.86-5.37,7.28-8.07l48.25-47.41c2.36-2.33,4.58-4.83,7.13-6.94a19.9,19.9,0,0,1,26.38.63c7.6,7.15,8.39,18.56,1.69,27a91.29,91.29,0,0,1-6.86,7.2Z" transform="translate(-2 -2)"/><path class="cls-5" d="M1920.33,35.76c.33,6.94-3.08,12-7.75,16.62q-31.85,31.64-63.5,63.44c-5.17,5.17-10.25,10.45-15.54,15.49-9.23,8.79-21.29,9.05-29.29.8-7.8-8-7.72-19.8,1-28.58q40.33-40.76,81.09-81.1c6.19-6.15,13.71-8,22-4.53C1916.11,21.22,1920,27.35,1920.33,35.76Z" transform="translate(-2 -2)"/><path class="cls-5" d="M2097.25,484.15c-8.66.2-14.74-3.36-18.52-10.38s-3.2-14.15,1.36-20.73a45,45,0,0,1,5.37-5.86q37.73-37.76,75.48-75.46a45.8,45.8,0,0,1,6.67-6,19.39,19.39,0,0,1,24,1.74,19.76,19.76,0,0,1,4,24.56,35.92,35.92,0,0,1-5.68,6.89q-38.39,38.49-76.83,76.92C2108.48,480.47,2103.62,484.3,2097.25,484.15Z" transform="translate(-2 -2)"/><path class="cls-5" d="M1203.9,125.85q-11.43,11-22.83,22c-2.15,2.07-4.14,4.32-6.39,6.25-8.78,7.55-20.12,7.35-27.77-.37-7.45-7.53-7.72-19.58-.05-27.8s15.86-16,23.77-24c1.85-1.86,3.47-3.94,5.19-5.92l47.56-46.77c2.37-2.33,4.59-4.84,7.16-6.91a19.78,19.78,0,0,1,28.33,27.28,55.3,55.3,0,0,1-5.43,5.83q-21.48,21.51-43,43C1208.16,120.8,1206.08,123.38,1203.9,125.85Z" transform="translate(-2 -2)"/><path class="cls-5" d="M1339.23,1738.31c-8,.21-14-2.91-17.87-9.48-4.08-6.91-3.95-14,.39-20.73a47.65,47.65,0,0,1,6.53-7.48q37-37.06,74-74.06a59.69,59.69,0,0,1,5.82-5.44c8.33-6.36,19.23-5.74,26.38,1.34s7.76,18.11,1.58,26.38a40.91,40.91,0,0,1-4,4.42q-38.41,38.46-76.85,76.89C1350.65,1734.75,1345.77,1738.56,1339.23,1738.31Z" transform="translate(-2 -2)"/><path class="cls-3" d="M2814.62,98.72c.11,5-3.17,9-7.09,12.88q-26.4,25.86-52.73,51.81c-4.51,4.43-8.91,9-13.66,13.16-5.35,4.69-11.5,6.56-18.49,3.62-9.9-4.16-13.35-15.15-7.35-24a40.29,40.29,0,0,1,5.34-5.91q30.59-30.17,61.26-60.24c2.59-2.53,5.37-5.14,8.56-6.74C2801.87,77.56,2814.68,85.43,2814.62,98.72Z" transform="translate(-2 -2)"/><path class="cls-3" d="M2801.15,1090.44c-1.28,2.28-3.08,7-6.16,10.62-4.94,5.8-10.71,10.92-16.19,16.27q-23.58,23-47.22,46a63.57,63.57,0,0,1-5.12,4.74c-7.45,5.8-17.72,5.26-23.56-1.12s-5.93-15.57.66-22.6c8-8.49,16.45-16.5,24.78-24.64q20-19.54,40.1-39a40.79,40.79,0,0,1,7.63-6.37C2786.82,1068.21,2800.74,1075.83,2801.15,1090.44Z" transform="translate(-2 -2)"/><path class="cls-3" d="M429,1693.23c-1.23,2.11-2.8,6.73-5.9,9.82-22.16,22.08-44.61,43.88-67.08,65.65a21.21,21.21,0,0,1-7.56,4.63,16.46,16.46,0,0,1-18.72-5.8c-4.49-6.32-4.45-13.86,1.19-20.24,6.16-7,13-13.36,19.64-19.87q23.19-22.71,46.53-45.25a33.45,33.45,0,0,1,7.78-6.12C416,1670.44,429.43,1678.77,429,1693.23Z" transform="translate(-2 -2)"/><path class="cls-3" d="M1487.37,631c-9.6-1-14.88-11.67-9.92-20.4a30.38,30.38,0,0,1,5.14-6q38.06-38.14,76.16-76.23c3.61-3.61,7.28-6.72,12.85-6.6,5,.11,9.2,1.61,11.65,6.23s2.59,9.62-.62,14.14a42.27,42.27,0,0,1-4.64,5.2q-38.41,38.47-76.88,76.92C1497.28,628,1493.38,631.58,1487.37,631Z" transform="translate(-2 -2)"/><path class="cls-3" d="M208.46,275.8c14.14,6.64,16,16,5.14,27q-38.31,38.57-76.85,76.91c-3.35,3.36-6.8,6.29-11.94,6.38s-9.22-1.39-12-5.73c-2.92-4.58-3.24-9.51-.36-14.14a44.76,44.76,0,0,1,6.45-7.54q22.41-22.73,44.92-45.34c5,1.38,8-1.73,11.16-4.84C186.09,297.54,197.29,286.69,208.46,275.8Z" transform="translate(-2 -2)"/><path class="cls-3" d="M1587.2,1835.4c14.65,5.76,16.86,15.13,5.73,26.37-25.52,25.77-51.25,51.34-76.92,77a32.5,32.5,0,0,1-5.3,4.52c-5.64,3.6-12,3-16.56-1.2a13.51,13.51,0,0,1-2.43-16.51,44.52,44.52,0,0,1,7-8.38q22-22.42,44.2-44.71c4.8,1.06,8-1.43,11.19-4.62C1565,1856.92,1576.15,1846.2,1587.2,1835.4Z" transform="translate(-2 -2)"/><path class="cls-5" d="M334.57,511.06l11.3,27.45q-23.82,23.49-47.64,47c-9.7,9.61-19.3,19.33-29,28.94a38.18,38.18,0,0,1-6.8,5.8,12.92,12.92,0,0,1-15.67-2,12.68,12.68,0,0,1-2.66-15.53,27.68,27.68,0,0,1,4.94-6.2Q291.75,553.75,334.57,511.06Z" transform="translate(-2 -2)"/><path class="cls-4" d="M1348.3,1487.57c-1.19,2.33-1.85,4.25-3,5.78a63.64,63.64,0,0,1-5.47,5.8q-83.31,83.32-166.64,166.63c-2.11,2.12-4.05,4.8-6.63,6-2.33,1-6.1,1.38-8,.15-3.37-2.14-2.41-5.84-.19-8.77A52,52,0,0,1,1163,1658q85.42-85.46,170.87-170.87c1.65-1.65,3.17-3.67,5.17-4.63,1.83-.88,4.74-1.4,6.26-.51S1347.4,1485.71,1348.3,1487.57Z" transform="translate(-2 -2)"/><path class="cls-4" d="M2144.19,1534.21c3.64-2.83,7.63-5.3,10.86-8.53q74.7-74.46,149.21-149.08c2.36-2.36,4.56-5.14,7.41-6.6,1.88-1,5.6-.8,7,.49s2,5.17,1.12,6.9c-1.84,3.43-4.81,6.32-7.62,9.13q-68.5,68.63-137.08,137.18c-3.28,3.29-6.26,6.89-9.38,10.34-6.89,6.61-13.75,13.24-20.68,19.8a57.45,57.45,0,0,1-6.76,5.72c-2.7,1.87-5.6,2-8-.74s-2.07-5.51.18-8c3.08-3.42,6.52-6.53,9.53-10C2141.69,1538.85,2142.82,1536.42,2144.19,1534.21Z" transform="translate(-2 -2)"/><path class="cls-4" d="M86,1889.49c-6,.2-8.48-3.5-6.37-7.32a25.32,25.32,0,0,1,4.47-5.31q86.45-86.5,173-172.91c2.07-2.07,4.52-4.16,7.2-5,1.66-.55,4.59.61,6,2,.91.9.65,3.89-.16,5.36-1.25,2.26-3.33,4.11-5.21,6Q179.47,1797.66,94,1883A85,85,0,0,1,86,1889.49Z" transform="translate(-2 -2)"/><path class="cls-4" d="M2365.54,449a24,24,0,0,1-2.33,4.48,61.28,61.28,0,0,1-5.49,5.8Q2274.4,542.67,2191,626c-2.11,2.11-4.08,4.79-6.67,5.9-2.32,1-6.09,1.22-8,0-3.19-2.08-1.44-5.32.64-7.73,1.75-2,3.67-3.86,5.56-5.74q84-84.06,168.11-168.09c2.35-2.34,4.66-4.86,7.43-6.6C2361.81,441.34,2365.6,443.83,2365.54,449Z" transform="translate(-2 -2)"/><path class="cls-5" d="M2355.93,1288.61l-9.94-8.52c13.24-13.1,26.53-26.16,39.71-39.32q44.53-44.44,89-89c1.89-1.88,3.76-3.78,5.76-5.53,2.57-2.26,5.45-2.67,8.11-.31,3,2.67,2.82,6,.54,8.92a71.59,71.59,0,0,1-6.2,6.49q-59.66,59.67-119.32,119.34C2361,1283.32,2358.47,1286,2355.93,1288.61Z" transform="translate(-2 -2)"/><path class="cls-5" d="M1993.66,1577.4l-48.24,47.45c-1.89,1.86-3.73,3.78-5.67,5.6-2.92,2.75-6.19,4.33-9.63,1.09s-2.25-6.57.53-9.6c1.8-2,3.73-3.78,5.6-5.67l48.94-49.59q22.65-22.35,45.31-44.68c2.13-2.09,4-4.69,6.61-5.93,2-1,6-1.12,7,.09,1.5,1.85,2,5.43,1.36,7.83s-3.27,4-5.12,5.92Q2017,1553.67,1993.66,1577.4Z" transform="translate(-2 -2)"/><path class="cls-5" d="M489,1356c-6.26.26-9.25-4.74-6.81-9.12,1.1-2,3-3.55,4.62-5.19q49.35-49.38,98.73-98.73c1.41-1.41,2.74-3.55,4.41-3.89,2.59-.53,6-.7,8,.6,2.86,1.82,2.38,5.25.29,7.92a55.8,55.8,0,0,1-4.74,5.11q-48.65,48.67-97.34,97.3A89.13,89.13,0,0,1,489,1356Z" transform="translate(-2 -2)"/><path class="cls-5" d="M832.63,1544.39c5.78.18,8.69,4.83,6.61,8.72-1.22,2.28-3.28,4.15-5.14,6q-49,49-98,98c-1.65,1.64-3.16,3.88-5.16,4.57-2.19.74-6.12,1-7.08-.3-1.44-1.88-1.65-5.4-1.06-7.91.47-2,2.9-3.49,4.55-5.13q49-49,98-98A85.7,85.7,0,0,1,832.63,1544.39Z" transform="translate(-2 -2)"/><path class="cls-5" d="M1426.24,422a28.11,28.11,0,0,1-2.46,4.39,58.71,58.71,0,0,1-4.85,5q-47.61,47.61-95.23,95.21c-2.11,2.11-4.09,4.71-6.67,5.87-2,.88-5.62.72-7-.59s-1.73-4.74-1.39-7.06c.25-1.67,2.29-3.15,3.7-4.55q50.4-50.46,100.88-100.84a15.74,15.74,0,0,1,5.61-3.88C1422.71,414.18,1426.29,417.09,1426.24,422Z" transform="translate(-2 -2)"/><path class="cls-5" d="M347.52,1438.34a20.68,20.68,0,0,1-2,3.56,63.72,63.72,0,0,1-4.83,5q-48,48-96,96c-1.88,1.88-3.55,4.32-5.84,5.35-2.07.93-5.29,1.14-7.21.15-3-1.58-3.21-5-1.46-7.85a29.84,29.84,0,0,1,4.59-5.23q49.07-49.1,98.17-98.15c1.87-1.86,3.81-3.88,6.12-5C343.17,1430.25,347.62,1433.2,347.52,1438.34Z" transform="translate(-2 -2)"/><path class="cls-5" d="M2787.76,1414.9c-5.77.17-9-4.34-7-8.28,1.17-2.29,3.19-4.22,5.06-6.09q49-49.12,98.15-98.18a58,58,0,0,1,4.37-4.08c2.62-2.13,5.48-2.68,8.1-.17,2.91,2.8,2.45,6,.17,8.94a37.71,37.71,0,0,1-3.43,3.62q-49.42,49.44-98.9,98.85A73.07,73.07,0,0,1,2787.76,1414.9Z" transform="translate(-2 -2)"/><path class="cls-5" d="M208.46,275.8c-11.17,10.89-22.37,21.74-33.47,32.7-3.16,3.11-6.14,6.22-11.16,4.84-3.66-4.31-3.37-8.29.75-12.22,4.33-4.12,8.47-8.45,12.7-12.67q43-43,86-86a68.67,68.67,0,0,1,6.54-6.12c2.66-2.06,5.61-2.1,8.12.38s2.48,5.4.41,8.08a63.41,63.41,0,0,1-5.45,5.8q-28.53,28.55-57.06,57.1C213.25,270.31,210.9,273.1,208.46,275.8Z" transform="translate(-2 -2)"/><path class="cls-3" d="M2467.15,525.76c1-1.8,2.09-5.47,4.47-7.9q22.62-23.17,45.78-45.82c5.42-5.29,12.38-5.32,17-1,4.91,4.58,4.95,11.9-.71,17.68-15.11,15.43-30.47,30.61-45.77,45.84-3.86,3.84-8.43,5.39-13.63,3.08C2470,535.73,2467.66,532.27,2467.15,525.76Z" transform="translate(-2 -2)"/><path class="cls-3" d="M2082,1595c-.9,1.6-2.09,5.21-4.47,7.65q-22.28,22.8-45.09,45a17.66,17.66,0,0,1-8.68,4.16c-4.61.88-8.44-1.3-10.9-5.38a10.89,10.89,0,0,1,1.78-13.77q23.68-24.21,47.87-47.9c3.94-3.87,9-4,13.92-1.62C2080.36,1585.12,2082,1588.71,2082,1595Z" transform="translate(-2 -2)"/><path class="cls-3" d="M2902.11,1583.8c-.79,1.43-1.83,4.75-4,7q-22.71,23.19-45.87,46c-5.77,5.64-12.06,5.75-16.88,1.17s-4.87-12,.82-17.8c14.86-15.28,30-30.24,45.15-45.27a16.44,16.44,0,0,1,4.89-3.37C2894.15,1568,2902.22,1573.37,2902.11,1583.8Z" transform="translate(-2 -2)"/><path class="cls-5" d="M534.21,510.28q22-21.6,44-43.18c2.12-2.08,4.1-4.71,6.69-5.8,1.95-.81,5.58-.39,7,1s1.82,5,1,7c-1.09,2.58-3.72,4.55-5.81,6.68q-21.54,22-43.14,44-26.22,25.82-52.45,51.63c-1.89,1.87-3.51,4.42-5.79,5.36s-6.11,1.5-8.06.3c-3.24-2-2.78-5.78-.53-8.75a62.08,62.08,0,0,1,5.49-5.76Z" transform="translate(-2 -2)"/><path class="cls-3" d="M998.58,1647.93c-10.77,0-16.43-8.58-12.88-16.14a20.88,20.88,0,0,1,4.15-5.55c14.55-14.65,29-29.36,43.9-43.68a17.61,17.61,0,0,1,10.46-4.58c8.6-.39,13.68,8.5,9.62,16.12a27.91,27.91,0,0,1-5,6.15c-13.84,13.93-27.67,27.89-41.72,41.62C1004.17,1644.74,1000.35,1646.7,998.58,1647.93Z" transform="translate(-2 -2)"/><path class="cls-5" d="M2660.15,507a54.79,54.79,0,0,1-5,6.61c-12.37,12.54-24.88,25-37.33,37.4q-30,30-59.94,59.93a69.41,69.41,0,0,1-5.78,5.48c-2.94,2.33-6.64,3-8.7-.39-1.22-2-.64-5.47.07-8,.46-1.69,2.56-3,4-4.35q49-49,98-98c1.87-1.87,3.7-4,6-5.2C2655.42,498.24,2659.89,501,2660.15,507Z" transform="translate(-2 -2)"/><path class="cls-5" d="M2801.51,424.22c-6,0-9-4.34-7-8.38,1.13-2.3,3.17-4.22,5-6.09q49-49,98-98c1.64-1.64,3.18-4,5.17-4.52,2.49-.64,6.47-.68,7.82.81s.56,5.25.18,8c-.15,1.07-1.66,2-2.6,2.92q-50.4,50.42-100.85,100.79A51.77,51.77,0,0,1,2801.51,424.22Z" transform="translate(-2 -2)"/><path class="cls-4" d="M948,306.14l56.16-55.4c2.14-2.11,4.24-4.25,6.52-6.19,2.56-2.2,5.42-2.6,8.12-.23s2.58,5.4.66,8.07a62.92,62.92,0,0,1-6.58,7.47q-27.51,27.6-55.06,55.15c-2.81,2.82-5.32,5.93-8,8.9q-15.69,15.27-31.39,30.53a70.73,70.73,0,0,1-5.84,5.39c-2.77,2.14-5.6,1.8-8-.71s-2.51-5.39-.31-8.05c1.89-2.3,4-4.39,6.13-6.53Q929.22,325.34,948,306.14Z" transform="translate(-2 -2)"/><path class="cls-4" d="M2319.93,256.74c-2.39-1.57-5-2.39-5.79-4.06s-.1-4.44.84-6.26c1-2,3.05-3.47,4.69-5.11q48-48,95.94-95.93c1.88-1.88,3.63-4.35,5.93-5.21s6-1.13,8.05.07c3,1.72,2.38,5.21.53,7.94a30.94,30.94,0,0,1-3.9,4.51q-48.66,48.7-97.38,97.31C2326.35,252.48,2323.19,254.3,2319.93,256.74Z" transform="translate(-2 -2)"/><path class="cls-3" d="M632.3,80.88c.27-1,.2-3.49,1.4-4.72C650.94,58.6,668.17,41,685.85,23.93c3.69-3.56,10-2,13.68,1.68a11.2,11.2,0,0,1,2.14,12.91,22.21,22.21,0,0,1-2.83,4.08,45.21,45.21,0,0,1-3.36,3.7Q675,66.73,654.36,87.11A22.38,22.38,0,0,1,648,91.82C640.59,95.06,632.68,89.89,632.3,80.88Z" transform="translate(-2 -2)"/><path class="cls-7" d="M778,457.56c-2,1.73-3.94,3.56-6,5.18-5.35,4.14-12.43,4.42-16.39.73-4.45-4.15-4.76-11.44-.09-17.13,3.56-4.33,7.9-8,11.76-12.1a24.53,24.53,0,0,0,2.58-4.15c8.84-8.45,17.64-16.94,26.55-25.32a46.5,46.5,0,0,1,8.42-6.85c5.41-3.09,10.6-2,14.32,2.37a11.62,11.62,0,0,1,.5,14.66,60.47,60.47,0,0,1-6.09,6.53Q795.73,439.54,778,457.56Z" transform="translate(-2 -2)"/><path class="cls-5" d="M2535.08,1608.81c-6-.42-8.56-4.9-6.23-8.88,1.31-2.24,3.41-4.06,5.29-5.93q48.69-48.75,97.43-97.45c1.65-1.65,3.15-3.84,5.17-4.6s5.26-1,7.19,0c3.15,1.64,2.9,5.09,1.29,7.88a27.25,27.25,0,0,1-4.61,5.2q-49.05,49.1-98.18,98.12C2540,1605.56,2536.9,1607.41,2535.08,1608.81Z" transform="translate(-2 -2)"/><path class="cls-4" d="M2326,1866.16c5.32-5,10.76-9.87,15.95-15,14.64-14.51,29.13-29.16,43.77-43.68,5.39-5.34,8.9-6.29,11.93-3.73,3.38,2.86,2.53,7-3.12,12.65-19,19.1-38.11,38.06-57,57.21-3,3-5.22,6.74-7.81,10.13-3.16,2.36-6.59,4.42-9.42,7.13-7.67,7.35-15.07,15-22.62,22.48-1.64,1.64-3.19,3.89-5.2,4.51-2.5.79-6,1.15-8.07,0-3-1.72-2.43-5.29-.52-7.94a62.66,62.66,0,0,1,6-6.65Q2307.86,1884.67,2326,1866.16Z" transform="translate(-2 -2)"/><path class="cls-4" d="M1568,339.41c-5.94.32-8.88-3.85-6.89-8.12a23.59,23.59,0,0,1,4.87-6.22q48.62-48.72,97.35-97.35c1.63-1.64,3.34-3.75,5.37-4.28,2.23-.58,5.76-.42,7.07,1s1.36,5,.58,7.11c-.85,2.32-3.16,4.19-5,6.06q-47.92,48-96,95.92A76.48,76.48,0,0,1,1568,339.41Z" transform="translate(-2 -2)"/><path class="cls-4" d="M1197.5,1829a26.29,26.29,0,0,1-2.32,4.5,49.75,49.75,0,0,1-4.78,5.08q-46.9,46.92-93.85,93.8c-2.34,2.33-4.72,5-7.62,6.24-1.89.81-5.34,0-7-1.33-1.2-1-1.32-4.45-.59-6.29.92-2.34,3-4.3,4.89-6.17q48.29-48.36,96.66-96.63a24.19,24.19,0,0,1,7.08-5.32C1193.84,1821.23,1197.54,1824.12,1197.5,1829Z" transform="translate(-2 -2)"/><path class="cls-5" d="M1587.2,1835.4c-11,10.8-22.16,21.52-33.1,32.43-3.19,3.19-6.39,5.68-11.19,4.62-3.44-7.31-3.53-7.39,2.53-13.48q26.36-26.51,52.84-52.87,22.9-22.9,45.81-45.8c6.63-6.6,10.09-7.62,13.16-4,2.82,3.29,1.8,6.56-4.21,12.58q-31.32,31.4-62.69,62.74A48.41,48.41,0,0,0,1587.2,1835.4Z" transform="translate(-2 -2)"/><path class="cls-4" d="M2791.42,252c9.78.17,14.35,7,11,14.42a25.35,25.35,0,0,1-5.21,7.17q-19.57,19.83-39.4,39.41a29,29,0,0,1-7.11,5.32,10.91,10.91,0,0,1-13.46-3c-3.24-3.87-4-8.69-.13-12.71,15.87-16.47,32.12-32.57,48.46-48.58C2787.27,252.43,2790.43,252.33,2791.42,252Z" transform="translate(-2 -2)"/><path class="cls-4" d="M662.22,1933.8c-10.57.19-16-8.4-11.93-15.88a29.41,29.41,0,0,1,5-6.17q19.68-19.83,39.5-39.54a31.66,31.66,0,0,1,4.45-4,11.38,11.38,0,0,1,14.62,1.07c4.17,4.26,4.48,9.14.83,14.45a21.28,21.28,0,0,1-2.58,3c-14.1,14.13-28.13,28.33-42.4,42.28C667.25,1931.47,663.78,1932.84,662.22,1933.8Z" transform="translate(-2 -2)"/><path class="cls-4" d="M351.38,1604c-11.28-.24-15.84-7.53-12.07-15.26a15.23,15.23,0,0,1,3-4c14.76-14.82,29.46-29.71,44.4-44.35,5.6-5.49,11-5.49,15.71-.86a11.55,11.55,0,0,1,1.15,15.4,59.77,59.77,0,0,1-6.11,6.54c-12.19,12.22-24.28,24.56-36.72,36.53C357.58,1601.05,353.27,1602.83,351.38,1604Z" transform="translate(-2 -2)"/><path class="cls-4" d="M2734.14,1309.8c-10.5.21-15.21-8.89-10.61-17.32a24.88,24.88,0,0,1,4.43-5.33q19.68-19.77,39.43-39.45c.7-.71,1.4-1.43,2.16-2.06,5.79-4.77,12.29-4.73,16.95.07s4.53,10.06-1,15.71q-22,22.39-44.4,44.33C2738.86,1307.92,2735.57,1309,2734.14,1309.8Z" transform="translate(-2 -2)"/><path class="cls-4" d="M2571.77,316.29c-.84,1.44-2,4.7-4.18,6.93q-21.33,21.78-43.14,43.09a18.61,18.61,0,0,1-9.46,5c-7.23,1.1-13-8.05-10.1-15.48a15.26,15.26,0,0,1,3.36-4.89c14.08-14.19,28.28-28.28,42.35-42.48a14.08,14.08,0,0,1,12.71-4.26C2569,305,2572.05,308.69,2571.77,316.29Z" transform="translate(-2 -2)"/><path class="cls-4" d="M2798.25,1791.79c.78-1.35,1.91-4.61,4.09-6.84,14-14.29,28.06-28.47,42.43-42.36,2.4-2.32,6.23-3.66,9.62-4.35a8.56,8.56,0,0,1,10,4.94c1.86,3.85,2.16,7.74-.4,11.37a42.44,42.44,0,0,1-4.66,5.2q-19.77,19.82-39.57,39.57c-1.18,1.18-2.37,2.35-3.61,3.45-3.61,3.21-7.66,4.09-11.94,1.63C2800.11,1802.07,2797.93,1798.48,2798.25,1791.79Z" transform="translate(-2 -2)"/><path class="cls-7" d="M274.24,451.55c.92-1.47,2.32-4.91,4.73-7.37q20.88-21.35,42.2-42.25c6-5.88,11.87-6.34,16.75-2.05,5.05,4.43,5.18,11.45-.75,17.63C324.31,430.91,311,443.93,297.88,457a54.24,54.24,0,0,1-7.51,6.47c-3.14,2.14-6.71,3-10.29.82C276.11,461.89,273.93,458.38,274.24,451.55Z" transform="translate(-2 -2)"/><path class="cls-7" d="M1930.78,475.71c-7.16.36-10.67-1.85-13.12-5.83-2.21-3.59-1.25-7.14.83-10.35a39.14,39.14,0,0,1,5.12-6.1q19.38-19.5,38.85-38.9c1-.94,1.86-1.92,2.88-2.77,5.06-4.24,11.53-4.78,15.45-1.33,3.64,3.2,4.39,10.88,1.34,15.76a26.55,26.55,0,0,1-3.91,4.52c-13.17,13.22-26.29,26.48-39.63,39.53C1935.88,472.89,1932.31,474.66,1930.78,475.71Z" transform="translate(-2 -2)"/><path class="cls-4" d="M1498,157.49c-.82,1.43-2.12,5.33-4.71,8-13.67,14.09-27.68,27.84-41.52,41.76-3.23,3.25-6.85,5.2-11.57,4.53-7.91-1.13-11.86-8.53-8.1-15.52a24.21,24.21,0,0,1,4.24-5.5c13.83-13.93,27.59-27.93,41.73-41.54a17.67,17.67,0,0,1,10.35-4.63C1494.51,144.25,1497.9,148.64,1498,157.49Z" transform="translate(-2 -2)"/><path class="cls-7" d="M1780.06,1455c-4.87-1-9.37-1.67-10.59-6-1-3.49-.19-7.65.55-11.36.34-1.69,2.39-3.1,3.79-4.5,13.84-13.88,27.61-27.83,41.67-41.49,2.44-2.38,6-4.71,9.21-5,7.19-.54,12.73,7.78,10.17,14.7a21.65,21.65,0,0,1-4.88,7.39c-13.28,13.5-26.62,27-40.19,40.15C1787.11,1451.55,1783.33,1453,1780.06,1455Z" transform="translate(-2 -2)"/><path class="cls-4" d="M963.35,1812c-10.75-.32-15.24-7.22-11.72-14.66a30,30,0,0,1,6-7.85c12.6-12.77,25.32-25.43,38-38.09a36,36,0,0,1,5.27-4.54c5-3.32,8.92-3.23,12.79,0a11.67,11.67,0,0,1,3,14.44,25.14,25.14,0,0,1-4.38,5.37c-13.12,13.19-26.17,26.47-39.55,39.39C969.61,1809.12,965.27,1810.86,963.35,1812Z" transform="translate(-2 -2)"/><path class="cls-4" d="M2186.09,1331.44c-5.82.39-8.63-3.33-6.58-7.06a29.11,29.11,0,0,1,5.13-6.06q48.68-48.75,97.42-97.43c2.1-2.09,4.3-4.43,6.92-5.52,1.63-.68,4.86.16,6.05,1.5s1,4.15.5,6.12c-.33,1.42-2,2.56-3.2,3.73q-50.11,50.15-100.28,100.22A46.32,46.32,0,0,1,2186.09,1331.44Z" transform="translate(-2 -2)"/><path class="cls-4" d="M576.36,1707c-2.14,2.74-3.89,5.53-6.15,7.82-13.1,13.26-26.32,26.4-39.49,39.58l-57.19,57.18c-1.88,1.88-3.77,3.76-5.76,5.52-2.28,2-5.18,2.71-6.95,0a9.7,9.7,0,0,1-1-7.09c.55-2,2.76-3.65,4.4-5.29q49-49.1,98.13-98.13c1.64-1.64,3.24-3.52,5.24-4.55,1.54-.79,4-1.1,5.45-.36S575,1704.75,576.36,1707Z" transform="translate(-2 -2)"/><path class="cls-3" d="M505.71,1611.63c-5.73-.53-9.74-2.55-12.06-7.11-2.47-4.84-2.56-10,.9-14.08a126.53,126.53,0,0,1,16.18-16.06c5-4.08,12.15-3.15,16.52.84,4.59,4.19,6.36,11.34,2.4,16.23-5.36,6.64-11.85,12.4-18.17,18.2C510,1611.06,507.21,1611.15,505.71,1611.63Z" transform="translate(-2 -2)"/><path class="cls-3" d="M2456.1,1257.51c0,.33,0,.67,0,1-.53,8.22-16.36,24.46-24.6,25.24a12.62,12.62,0,0,1-12.06-5.62c-3.29-4.54-3.9-10-.56-14,5.46-6.61,11.4-13.27,18.41-18C2445.59,1240.48,2456.15,1247.48,2456.1,1257.51Z" transform="translate(-2 -2)"/><path class="cls-3" d="M1598.09,413.91c-11.59-.32-18-11.74-11.79-20.16,4.86-6.58,11.18-12.26,17.55-17.48,4.51-3.7,11.32-2.38,15.59,1.55s6.24,10.88,2.67,15.37c-5.52,6.92-12.2,13-18.71,19C1601.91,413.61,1599.11,413.61,1598.09,413.91Z" transform="translate(-2 -2)"/><path class="cls-3" d="M1538.69,1460c-10.63-.23-17.45-11.17-11.68-19.16,5.15-7.13,12.08-13.17,19-18.77,4.29-3.49,9.58-1.73,13.8,1.65,4.44,3.55,5.77,8.79,3.81,13.53-4.18,10.13-12.14,17.15-21.74,22.25A8.26,8.26,0,0,1,1538.69,1460Z" transform="translate(-2 -2)"/><path class="cls-3" d="M2386.17,22.66c-.06,8.63-17.33,26-25.92,26-5,0-9.07-2.11-11.58-6.54s-2.92-9.4.32-13.19c5.37-6.29,10.94-12.76,17.6-17.5C2375.21,5.33,2386.25,12.13,2386.17,22.66Z" transform="translate(-2 -2)"/><path class="cls-3" d="M2304.79,680.83c-5.67-.18-9.65-2.26-12.25-6.63s-2.88-9.39.36-13.17a152.28,152.28,0,0,1,17.59-17.6c4.33-3.62,10.64-2.66,14.89.72s7.14,10.81,3.69,15.25c-5.82,7.47-13.2,13.75-20.12,20.33C2307.91,680.72,2305.81,680.59,2304.79,680.83Z" transform="translate(-2 -2)"/><path class="cls-3" d="M2325.53,1993.77c-1.29.15-2.59.28-3.89.46-6,.84-11.16-.74-14.15-6.33-2.89-5.4-2.23-10.68,1.68-15.5a15.71,15.71,0,0,0,1.36-2.53c3.93-3.55,7.78-7.2,11.8-10.65,6.41-5.51,13.41-5.66,18.78-.56,5.68,5.4,5.76,12.81-.26,19.48C2336,1983.55,2330.65,1988.58,2325.53,1993.77Z" transform="translate(-2 -2)"/><path class="cls-3" d="M946,434.35c-3.2.17-6.56,1-9.57.37a12.57,12.57,0,0,1-8.79-17.53c1-2.36,2.68-4.44,4.05-6.65,3.64-3.35,7.22-6.76,10.91-10.05,6.54-5.81,14.16-6.11,19.5-.87s5.33,13.11-.56,19.45C956.61,424.38,951.21,429.27,946,434.35Z" transform="translate(-2 -2)"/><path class="cls-7" d="M2796.23,563.84a11,11,0,0,1-10.6-6.18c-2.45-4.7-2.86-10.09.59-14.14a155.09,155.09,0,0,1,17-16.72c3.84-3.3,8.64-3.17,13.06-.44,4.19,2.59,7,6.17,7,11.32C2823.09,547.07,2805.62,563.91,2796.23,563.84Z" transform="translate(-2 -2)"/><path class="cls-7" d="M128.76,1543.73c-4.4-.16-8.52-2-10.89-6.57-2.25-4.38-3.16-9.4.07-13.23a177.57,177.57,0,0,1,17.45-17.68c3.46-3.11,8.15-3,12.18-.71,4.52,2.59,7.69,6.49,7.69,12C155.25,1526.45,138.23,1543.5,128.76,1543.73Z" transform="translate(-2 -2)"/><path class="cls-7" d="M1272.16,1853.76c.14-7.2,18-25.3,25.34-25.6,10.1-.41,18,10.95,12.26,19.15a74.34,74.34,0,0,1-18.84,18.64C1283.34,1871.11,1272,1863.09,1272.16,1853.76Z" transform="translate(-2 -2)"/><path class="cls-7" d="M257.94,1777.63c-9.56.87-18.09-10.09-14.12-17.41a54.16,54.16,0,0,1,18.74-20.13,12.4,12.4,0,0,1,16.25,2.64c3.8,4.53,4.43,12,.48,16.56a195.58,195.58,0,0,1-16.2,16.12C261.28,1777,258.38,1777.45,257.94,1777.63Z" transform="translate(-2 -2)"/><path class="cls-7" d="M342.32,1292.13c11.8-.24,19.12,9.44,14.08,17.57-4.71,7.6-11.81,14.14-19,19.68-5.23,4-12.82,1.11-16.56-4.29s-3.5-10.88,1.36-16.19a146.48,146.48,0,0,1,12.7-12.59C337.52,1294.08,341,1292.85,342.32,1292.13Z" transform="translate(-2 -2)"/><path class="cls-7" d="M1795.12,1542c2.09,1.51,6.15,3.32,8.55,6.41,3.19,4.12,3.77,9.81.27,13.91a147.78,147.78,0,0,1-17.69,17.24c-4.26,3.56-9.43,2.62-13.78-.7s-7.25-7.51-5.22-12.84c4.18-11,12.42-18.36,22.87-23.36C1791,1542.2,1792.07,1542.33,1795.12,1542Z" transform="translate(-2 -2)"/><path class="cls-7" d="M2836.1,1963.7c-9.78.32-17.4-11-12-18.8,5-7.18,11.85-13.23,18.65-18.84,4.12-3.39,9.37-2.47,13.63,1.38,3.93,3.54,7.13,7.78,4.76,13-4.63,10.23-12.53,17.61-22.51,22.74A8.22,8.22,0,0,1,2836.1,1963.7Z" transform="translate(-2 -2)"/><path class="cls-7" d="M2696.56,1394.23c10.66.31,17,11,11.15,19.32-4.8,6.91-11.42,12.77-18,18.15-4.41,3.59-10.14,2.25-14.47-1.87-3.81-3.63-6.56-8.29-4-13.32,4.71-9.3,12.19-16.3,21.28-21.42C2693.87,1394.32,2695.7,1394.4,2696.56,1394.23Z" transform="translate(-2 -2)"/><path class="cls-7" d="M1791.77,238.68c-.2,13.19-18,28.51-28.72,27.19-9.32-1.15-14.41-11.18-8.7-18.53,4.86-6.25,10.83-11.74,16.84-17a11.24,11.24,0,0,1,14-.72C1788.59,232.12,1790.42,236.73,1791.77,238.68Z" transform="translate(-2 -2)"/><path class="cls-7" d="M691.56,1724.2c.15-.62.3,1.49-.68,2.51-6.41,6.62-12.7,13.45-19.79,19.29-3.67,3-11.2.67-14.48-3s-4.23-12.7-.73-16.87a111.76,111.76,0,0,1,16.36-15.82c4.06-3.19,9.41-3.28,14.09-.32C690.65,1712.71,692.39,1716.85,691.56,1724.2Z" transform="translate(-2 -2)"/><path class="cls-7" d="M433.36,1451.92c-12.57,0-19.06-9.66-13.47-18.62,4.26-6.83,10.61-12.68,17-17.77,4.78-3.82,14.11-1.66,17.34,2.42,4.42,5.58,4.09,11.92-1.37,18a114.34,114.34,0,0,1-12,11.91C438.21,1450.08,434.7,1451.23,433.36,1451.92Z" transform="translate(-2 -2)"/><path class="cls-7" d="M2522.42,184c-11.56-.21-17.89-10.64-12.24-19.19,4.26-6.45,10.34-12.07,16.62-16.68a13.45,13.45,0,0,1,18,2.38c3.34,4.34,4.24,9.46.69,13.8A174,174,0,0,1,2528.24,182C2526.51,183.6,2523.38,183.67,2522.42,184Z" transform="translate(-2 -2)"/><path class="cls-7" d="M2784.72,1554c-11.7,0-18.19-9.28-12.94-17.7a72.75,72.75,0,0,1,16.69-18c5.79-4.55,14.27-2.79,18.1,1.92,3.66,4.51,4.44,10,.57,14.66a167,167,0,0,1-16.66,17C2788.73,1553.46,2785.66,1553.64,2784.72,1554Z" transform="translate(-2 -2)"/><path class="cls-7" d="M2098.16,202.28c-.15-7.71,18-26.11,25.83-26.12,8.7,0,15.73,9.19,12.29,17.28a38.41,38.41,0,0,1-22.48,21.25C2106.85,217.3,2098.32,210.07,2098.16,202.28Z" transform="translate(-2 -2)"/><path class="cls-7" d="M1468,369.89c-5.6-.33-9.14-2.81-10.88-7.08-2-4.83-2.09-10,1.56-14.16a166.24,166.24,0,0,1,13.31-13.5c5.8-5.28,11.06-5.75,16.26-2.09,4.9,3.46,7.82,11.56,4.71,17a45.82,45.82,0,0,1-19.88,19C1471.41,369.84,1469.23,369.71,1468,369.89Z" transform="translate(-2 -2)"/><path class="cls-7" d="M999.84,1932.14c6.58-.23,10.61,2,12.76,6.56,2.22,4.72,2.49,10-1,14.14a127.7,127.7,0,0,1-14.77,14.74c-4.54,3.81-13.56,3-17.68-.63-3.2-2.86-5.1-11.69-1.81-15.74,5.36-6.62,11.87-12.34,18.19-18.12C996.73,1932,999.27,1932.24,999.84,1932.14Z" transform="translate(-2 -2)"/><path class="cls-7" d="M2723.93,417.58c-.64,1.39-1.22,4.19-2.88,6a155.83,155.83,0,0,1-15.54,15.51c-7,5.82-16.62,3.31-20.05-4.61-1.86-4.32-1.89-8.6,1.44-12.14,5-5.34,10.13-10.6,15.55-15.51,4.1-3.72,9.29-3.69,14.12-1.72S2723.13,411.43,2723.93,417.58Z" transform="translate(-2 -2)"/><path class="cls-7" d="M636.77,415.64c-10.37.2-17.9-11.51-12.41-19.15,5.11-7.13,12-13.27,18.95-18.69,4.67-3.62,11.59-1.54,15.35,2.74s4.88,11.49,1.26,15.7c-5.37,6.25-11.57,11.83-17.71,17.37C640.64,415,638,415.23,636.77,415.64Z" transform="translate(-2 -2)"/><path class="cls-4" d="M598.34,244.39c1-1.68,2.32-5.23,4.74-7.71,13.93-14.29,28.08-28.37,42.3-42.38,1.81-1.79,4.42-3.88,6.67-3.89,3.71,0,8,.62,11,2.63,4,2.69,3.82,7.66,2.1,11.86a23.67,23.67,0,0,1-5.09,7.27q-19.62,19.89-39.51,39.52a23.22,23.22,0,0,1-7.24,5.13C605.76,259.87,598,254.18,598.34,244.39Z" transform="translate(-2 -2)"/><path class="cls-7" d="M2002.12,1962.15c-.32-10.93,17.49-27.34,28.34-26.1,8.75,1,14.37,10.41,9.24,17.6a90.12,90.12,0,0,1-19.37,19.67C2013.08,1978.71,2002.4,1971.59,2002.12,1962.15Z" transform="translate(-2 -2)"/><path class="cls-4" d="M2045.64,1761.41c-1,1.78-2.26,5.37-4.66,7.84q-21.59,22.1-43.66,43.7c-5.8,5.65-11.85,5.52-16.74.62-4.53-4.52-4.85-10.25.59-15.89,15-15.51,30.36-30.65,45.7-45.82,3.65-3.62,8.07-4.44,12.78-1.82C2043.41,1752.14,2045.62,1755.22,2045.64,1761.41Z" transform="translate(-2 -2)"/></svg>