<svg id="Layer_1" data-name="Layer 1" xmlns="http://www.w3.org/2000/svg" viewBox="0 0 384.01 302.94"><defs><style>.cls-1{fill:#1c5d9a;}.cls-2{fill:#017ea7;}.cls-3{fill:#6bcff6;}.cls-4{fill:#fff;}.cls-5{fill:#00aed5;}</style></defs><title>manufacturing</title><path class="cls-1" d="M4.6,220c.38-1.39.78-2.77,1.13-4.16,4-15.73,13.69-26.42,28.7-32.52a10,10,0,0,0,4.72-4.21c21.05-39.93,41.92-80,62.93-119.91,9.28-17.66,29.35-23.82,45.86-14.23a32.92,32.92,0,0,1,14.3,17.16,16.7,16.7,0,0,0,3.55,5.58c11.06,11.18,22,22.49,33.49,33.25,9.77,9.18,15.14,21.52,7.09,37.58,3.77,3.7,7.58,7.6,11.61,11.27a4.94,4.94,0,0,0,3.56.71c6.21-.83,12.39-1.8,18.57-2.8,3.91-.63,6.79.7,8.65,4.18,1.25,2.35,2.56,4.68,3.62,7.12,1.73,4,.29,8-3.33,9.89a7,7,0,0,1-9.67-2.85c-1.4-2.61-2.91-2.8-5.42-2.23-3.75.85-8.71.12-11.08,2.31s-1.82,7.1-2.8,10.77-.23,6,4.08,6.74c4.49-5.84,11.75-4.42,18-5.79,6.62-1.45,13.4-2.22,20.11-3.27,5.69-.9,8,.25,10.66,5.35q7.11,13.86,14.11,27.78a60,60,0,0,1,2.22,5.93h22.21c-.35-1.33-.62-2.55-1-3.74-2.32-7.22-4.63-14.45-7-21.65-1.28-3.92-.35-7.07,3-9.5q14.87-10.8,29.75-21.61c3.35-2.45,6.64-2.46,9.95-.05q14.88,10.8,29.75,21.63c3.48,2.54,4.31,5.82,3,9.87-2.73,8.19-5.36,16.41-8.27,25.36,3.38,0,6.25-.06,9.1,0,6.12.15,8.81,2.82,8.83,8.85q.06,19.61,0,39.2c0,6.17-2.84,9-9.13,9-9.17.07-18.34,0-28.06,0v5q0,28.41,0,56.8c0,8.32-2.16,10.52-10.3,10.52H227.89c-6,0-9.21-2.76-9.1-7.61a7,7,0,0,1,6.28-7.08,38.21,38.21,0,0,1,4.79-.15H336.13V271.35H57v57.16H164.16c6.17.06,9.33,2.54,9.37,7.35s-3.15,7.49-9.21,7.5q-29.81,0-59.6,0h-52c-9,0-10.91-2-10.92-11.11V271c-9.28,0-18.17-.12-27.06.05-4.57.09-8-1.3-10.14-5.5Zm368.77,9.16H95.12v26.5H373.37ZM85.58,198.44a8.86,8.86,0,0,0,.9-1.09q30.43-58.2,60.75-116.47a18.51,18.51,0,0,0,1.7-9.62,16.9,16.9,0,0,0-14-15.39c-8.16-1.54-15.27,2-19.44,9.95Q86.1,121.86,56.8,178A32.54,32.54,0,0,0,55.6,181,46.75,46.75,0,0,1,85.58,198.44Zm118.1-13.54c.58-3.67.58-7.57,1.86-11,3.86-10.28-.17-17.41-8.17-23.47-1.65-1.25-2.72-1.81-4.87-1.06-11.09,3.89-21,1.61-29.42-6.55-6-5.84-11.89-11.85-17.84-17.77-.8-.8-1.69-1.5-2.74-2.43l-47.58,91h42.63c-1.46-2.47-2.7-4.48-3.86-6.52-2.37-4.18-2.13-6.87,1.06-10.54q11-12.67,22.08-25.28c3.51-4,6.08-4.53,11-2.45,9.44,4,18.86,8,28.25,12.08C198.59,182,201,183.47,203.68,184.9ZM79.81,255.74c0-10.15.09-20.11,0-30.06C79.61,210.32,67.92,197.3,53.3,196c-16.36-1.49-31.07,8.68-33,24.59-1.38,11.51-.27,23.32-.27,35.19ZM341.24,172c-6.87,5-13.39,9.6-19.71,14.47a4.8,4.8,0,0,0-1.4,4.12c2,6.89,4.25,13.71,6.7,20.45a4.84,4.84,0,0,0,3.42,2.73c7.31.26,14.64.24,21.95,0a4.49,4.49,0,0,0,3.37-2.31c2.5-7,4.74-14.1,6.88-21.23a3.74,3.74,0,0,0-.8-3.29C355,181.93,348.17,177.06,341.24,172ZM149.89,108.55c7.94,7.92,15.55,15.57,23.23,23.15,5.69,5.61,13.41,6,18.54.91,5.32-5.22,5-12.89-.86-18.79q-13.12-13.17-26.35-26.26c-.73-.72-1.55-1.35-2.5-2.17C157.89,93.18,154,100.7,149.89,108.55Zm37,105.36c.59-6,1-11.46,1.68-16.87.27-2.23-.47-3.33-2.55-4.16q-9.06-3.62-18-7.64c-1.92-.86-3.08-.68-4.42.95-2.95,3.6-6.07,7.06-9.14,10.56-5.73,6.53-5.8,6.57-1.05,14.07.81,1.29,2.38,2.93,3.64,3C166.9,214,176.72,213.91,186.89,213.91Zm47.67,0c11.72,0,22.72.11,33.72-.08,3-.05,4-2.28,2.59-5-2.73-5.46-5.43-10.94-8.4-16.27a4.52,4.52,0,0,0-3.49-2.09c-6.46.78-12.87,1.88-19.28,3-.82.15-2,1-2.15,1.7C236.47,201.17,235.6,207.2,234.56,213.89ZM204.1,190.47c-.66,7.63-1.32,15.34-2,23.46,4.66,0,8.77-.23,12.85.06,3.53.25,5.11-.85,5.12-4.53a26.31,26.31,0,0,1,1.12-6.66c.7-2.55-.24-3.8-2.54-4.88C213.85,195.67,209.22,193.12,204.1,190.47Z" transform="translate(-4.6 -40.43)"/><path class="cls-1" d="M203.66,336.06a7.5,7.5,0,1,1-7.29-7.49A7.47,7.47,0,0,1,203.66,336.06Z" transform="translate(-4.6 -40.43)"/><path class="cls-2" d="M373.37,229.13v26.5H95.12v-26.5ZM124.7,249.82a7.38,7.38,0,1,0-7.56-7.11A7.23,7.23,0,0,0,124.7,249.82Zm62.17-7.56a7.5,7.5,0,1,0-7.22,7.56A7.45,7.45,0,0,0,186.87,242.26Zm102-7.2a7.39,7.39,0,1,0,7.65,7.11A7.47,7.47,0,0,0,288.89,235.06Zm-47.31,7.31a7.37,7.37,0,1,0-7.2,7.46A7.2,7.2,0,0,0,241.58,242.37Zm109.71,0a7.39,7.39,0,1,0-7.2,7.48A7.23,7.23,0,0,0,351.29,242.35Z" transform="translate(-4.6 -40.43)"/><path class="cls-3" d="M85.58,198.44A46.75,46.75,0,0,0,55.6,181,32.54,32.54,0,0,1,56.8,178q29.33-56.07,58.7-112.13c4.17-7.94,11.28-11.49,19.44-9.95a16.9,16.9,0,0,1,14,15.39,18.51,18.51,0,0,1-1.7,9.62q-30.18,58.34-60.75,116.47A8.86,8.86,0,0,1,85.58,198.44ZM136.75,72.65a7.37,7.37,0,1,0-7.21,7.43A7.19,7.19,0,0,0,136.75,72.65Z" transform="translate(-4.6 -40.43)"/><path class="cls-4" d="M203.68,184.9c-2.73-1.43-5.09-2.86-7.61-4-9.39-4.09-18.81-8.09-28.25-12.08-4.91-2.08-7.48-1.53-11,2.45q-11.1,12.59-22.08,25.28c-3.19,3.67-3.43,6.36-1.06,10.54,1.16,2,2.4,4.05,3.86,6.52H94.92l47.58-91c1.05.93,1.94,1.63,2.74,2.43,5.95,5.92,11.81,11.93,17.84,17.77,8.43,8.16,18.33,10.44,29.42,6.55,2.15-.75,3.22-.19,4.87,1.06,8,6.06,12,13.19,8.17,23.47C204.26,177.33,204.26,181.23,203.68,184.9Z" transform="translate(-4.6 -40.43)"/><path class="cls-2" d="M79.81,255.74H20.06c0-11.87-1.11-23.68.27-35.19,1.9-15.91,16.61-26.08,33-24.59,14.62,1.34,26.31,14.36,26.49,29.72C79.9,235.63,79.81,245.59,79.81,255.74ZM49.62,233.32a7.71,7.71,0,0,0,7.59-7.21,7.49,7.49,0,1,0-7.59,7.21Z" transform="translate(-4.6 -40.43)"/><path class="cls-5" d="M341.24,172c6.93,5,13.74,9.91,20.41,15a3.74,3.74,0,0,1,.8,3.29c-2.14,7.13-4.38,14.23-6.88,21.23a4.49,4.49,0,0,1-3.37,2.31c-7.31.22-14.64.24-21.95,0a4.84,4.84,0,0,1-3.42-2.73c-2.45-6.74-4.7-13.56-6.7-20.45a4.8,4.8,0,0,1,1.4-4.12C327.85,181.62,334.37,177,341.24,172Z" transform="translate(-4.6 -40.43)"/><path class="cls-3" d="M149.89,108.55c4.08-7.85,8-15.37,12.06-23.16,1,.82,1.77,1.45,2.5,2.17q13.2,13.13,26.35,26.26c5.87,5.9,6.18,13.57.86,18.79-5.13,5-12.85,4.7-18.54-.91C165.44,124.12,157.83,116.47,149.89,108.55Zm40.4,15.26a7.38,7.38,0,1,0-7.33,7.37A7.37,7.37,0,0,0,190.29,123.81Z" transform="translate(-4.6 -40.43)"/><path class="cls-5" d="M186.89,213.91c-10.17,0-20,.11-29.8-.13-1.26,0-2.83-1.67-3.64-3-4.75-7.5-4.68-7.54,1.05-14.07,3.07-3.5,6.19-7,9.14-10.56,1.34-1.63,2.5-1.81,4.42-.95q8.88,4,18,7.64c2.08.83,2.82,1.93,2.55,4.16C187.92,202.45,187.48,207.87,186.89,213.91Z" transform="translate(-4.6 -40.43)"/><path class="cls-5" d="M234.56,213.89c1-6.69,1.91-12.72,3-18.71.12-.69,1.33-1.55,2.15-1.7,6.41-1.14,12.82-2.24,19.28-3a4.52,4.52,0,0,1,3.49,2.09c3,5.33,5.67,10.81,8.4,16.27,1.36,2.71.39,4.94-2.59,5C257.28,214,246.28,213.89,234.56,213.89Z" transform="translate(-4.6 -40.43)"/><path class="cls-4" d="M204.1,190.47c5.12,2.65,9.75,5.2,14.52,7.45,2.3,1.08,3.24,2.33,2.54,4.88a26.31,26.31,0,0,0-1.12,6.66c0,3.68-1.59,4.78-5.12,4.53-4.08-.29-8.19-.06-12.85-.06C202.78,205.81,203.44,198.1,204.1,190.47Z" transform="translate(-4.6 -40.43)"/><path class="cls-1" d="M124.7,249.82a7.38,7.38,0,1,1,7.2-7.45A7.23,7.23,0,0,1,124.7,249.82Z" transform="translate(-4.6 -40.43)"/><path class="cls-1" d="M186.87,242.26a7.5,7.5,0,1,1-7.58-7.2A7.49,7.49,0,0,1,186.87,242.26Z" transform="translate(-4.6 -40.43)"/><path class="cls-1" d="M288.89,235.06a7.39,7.39,0,1,1,.13,14.78,7.39,7.39,0,1,1-.13-14.78Z" transform="translate(-4.6 -40.43)"/><path class="cls-1" d="M241.58,242.37a7.37,7.37,0,1,1-7.34-7.3A7.22,7.22,0,0,1,241.58,242.37Z" transform="translate(-4.6 -40.43)"/><path class="cls-1" d="M351.29,242.35a7.39,7.39,0,1,1-7.38-7.28A7.25,7.25,0,0,1,351.29,242.35Z" transform="translate(-4.6 -40.43)"/><path class="cls-1" d="M136.75,72.65a7.37,7.37,0,1,1-7.33-7.31A7.2,7.2,0,0,1,136.75,72.65Z" transform="translate(-4.6 -40.43)"/><path class="cls-1" d="M49.62,233.32a7.62,7.62,0,0,1-7.37-7.79,7.49,7.49,0,0,1,15,.58A7.71,7.71,0,0,1,49.62,233.32Z" transform="translate(-4.6 -40.43)"/><path class="cls-1" d="M190.29,123.81a7.38,7.38,0,1,1-14.76-.31,7.38,7.38,0,0,1,14.76.31Z" transform="translate(-4.6 -40.43)"/></svg>