<svg id="Layer_1" data-name="Layer 1" xmlns="http://www.w3.org/2000/svg" viewBox="0 0 345.36228 359.92423"><defs><style>.cls-1{fill:#1c5d9a;}.cls-2{fill:#6bcff6;}.cls-3{fill:#f7f9f9;}.cls-4{fill:#fff;}.cls-5{fill:#828484;}.cls-6{fill:#017ea7;}.cls-7{fill:#00aed5;}</style></defs><title>robot</title><path class="cls-1" d="M232.00742,326.31143H151.43918c0,4.93371-.15534,9.69931.0276,14.45185.69373,18.02105-11.74226,31.16255-29.77978,31.24822q-18.99585.09024-37.99251.00332c-17.85126-.05859-30.12378-12.43513-30.094-30.22187q.04824-28.79426.02243-57.58855c.00037-1.30064.00005-2.60127.00005-3.71812a5.45579,5.45579,0,0,0-1.11418-.45788c-10.31065-.70513-10.31079-.70347-10.311-11.00642-.00008-3.83729,0-7.67457,0-12.09993-5.404,0-10.41723.02868-15.43-.00752-5.84816-.04224-7.608-1.80012-7.61331-7.63569q-.02453-26.99441.00275-53.98876c.00694-5.47934,1.9282-7.3395,7.50829-7.35315,8.78688-.0215,17.57386-.0057,26.95746-.0057v-4.38858q.00006-25.395.00341-50.78994c.00363-6.353,1.72053-8.11181,7.99362-8.11446q45.19119-.019,90.38236-.00644c1.57586,0,3.15171,0,5.28084,0,0-4.69411-.002-9.05492.00043-13.41573.00471-8.43526,1.03633-9.50822,9.26605-9.66419.53072-.01006,1.06055-.06808,1.91007-.1253V84.7971c-19.05013,12.45821-41.4741,16.17469-62.84991,22.40421-18.50544,5.393-38.218-7.06494-43.67642-25.74621C56.45289,62.698,66.34672,42.08088,84.68791,36.06078c25.15345-8.25607,50.56678-15.72226,75.88969-23.45838,4.04238-1.23494,6.66119.23748,7.9856,4.33956,2.00318,6.20451,3.94687,12.43264,5.69973,18.71108.5805,2.0793,1.54043,2.71025,3.61589,2.68924,9.19727-.09311,18.39725-.12141,27.59335.01749,2.27881.03442,3.29507-.69272,3.90237-2.85361,1.65576-5.89146,3.48584-11.735,5.31-17.57778,1.66433-5.33107,4.06352-6.6946,9.24194-5.1129,24.30547,7.42391,48.64526,14.74085,72.87537,22.40413a37.21242,37.21242,0,0,1,26.30891,37.73127,36.61617,36.61617,0,0,1-29.9315,34.347,44.28891,44.28891,0,0,1-18.47251-.896c-14.54-3.78008-28.90407-8.31631-43.14961-13.111-5.68217-1.91246-10.866-5.30548-16.33908-8.05585V101.145a2.82358,2.82358,0,0,0,.76821.33c10.14182.76791,10.3627,1.002,10.36294,11.08988.0001,3.84493,0,7.68987,0,12.06694h4.95115q44.99121.00006,89.98244.00248c7.16631.00136,8.57134,1.42338,8.5753,8.68447q.01369,24.99513.003,49.99025c0,1.427,0,2.854,0,4.62206,9.13022,0,17.76929-.006,26.40837.002,6.41343.00591,8.19956,1.68324,8.21057,7.93865q.04688,26.58783-.00073,53.17578c-.01116,6.12493-1.75871,7.81658-7.8688,7.873-4.66377.04309-9.32776.06535-13.9914.11953-.23211.00268-.46167.22153-1.13057.56413,0,4.40491.00583,9.03465-.00134,13.66438-.011,7.1043-1.477,8.56587-8.66553,8.69055-.79175.01375-1.58225.09786-2.96055.1875,0,1.46558-.00486,2.87889.00074,4.29217q.11553,29.17462.2403,58.34924a28.948,28.948,0,0,1-28.41394,29.1782q-20.59218.27755-41.19079.01352c-15.9846-.189-28.39507-12.94968-28.48518-29.0176C231.98174,337.52359,232.00742,332.08472,232.00742,326.31143Zm74.95286-69.38858c-5.24715,0-9.88482.00911-14.52244-.00212-7.01758-.017-8.50095-1.46836-8.5062-8.34343q-.01263-16.595-.00239-33.18994c0-1.39571,0-2.79143,0-4.07676H99.736c0,12.85224.02874,25.37312-.01266,37.89377-.0194,5.87095-1.82931,7.66314-7.63393,7.70921-5.02153.03989-10.04363.00832-15.3743.00832,0,4.25667,0,7.97009,0,11.68352-.00006,10.56846-.09473,10.67046-10.39551,11.40623a4.30808,4.30808,0,0,0-.95039.36745v33.77539H318.09585V279.95362c-1.10554,0-1.90144.00715-2.69717-.00113-7.01306-.073-8.41653-1.46626-8.43594-8.41352C306.94976,266.89351,306.96028,262.248,306.96028,256.92285ZM224.50374,25.02326c-2.76478,9.20474-5.5616,17.66239-7.82679,26.2601-3.30249,12.53489,3.33741,25.91,15.60169,30.07989,15.85368,5.39032,31.874,10.39931,48.06,14.67337,16.53149,4.3653,32.709-9.92637,31.13283-26.91732-1.5112-16.29056-12.89126-23.10709-28.74423-25.71174,11.19843,13.35648,12.789,24.65045,5.02011,35.64549A25.8675,25.8675,0,0,1,240.833,61.65237c.987-12.33027,9.99863-20.97248,25.52829-23.79123ZM128.71882,198.93634h56.76554V153.81426H128.71882ZM266.79368,153.554V199.0477h16.7654c1.40027-11.11668,1.40027-11.11668,12.72237-11.11669h21.85542V153.554ZM65.36492,187.93209c9.49575,0,18.53824-.03983,27.58013.0168,4.52562.02835,6.52034,2.01426,6.76926,6.546.08346,1.51926.0132,3.047.0132,4.57792h16.84363V153.59351H65.36492Zm253.03039-51.58837H65.33894v5.202H318.18652c.08675-.7207.18745-1.22684.20054-1.73524C318.41436,138.75086,318.39531,137.69,318.39531,136.34372ZM117.95964,37.66016c12.04627.56,21.1443,5.46626,25.60506,16.50755,5.38182,13.32118.79359,24.16469-10.3435,32.763,6.18739-1.68751,12.22456-3.31135,18.05457-5.48963,10.417-3.89212,18.03015-14.88636,16.22894-25.40311-1.78127-10.40031-5.30748-20.50177-8.15648-31.06126ZM105.754,41.23145c-6.51394,2.18864-13.24783,3.88566-19.49128,6.6789-9.8441,4.40412-15.33662,15.07846-14.198,25.91747A26.01051,26.01051,0,0,0,91.665,96.02468c10.58077,2.69237,19.54162-2.78111,29.17816-5.4025-13.06314-1.16626-22.55658-7.0837-25.95927-20.0504C91.77059,58.708,96.29656,49.22377,105.754,41.23145ZM30.7519,216.39209H87.77264V199.6376H30.7519Zm264.79236.02476h57.05525V199.67049H295.54426ZM30.79087,245.23723H87.86165v-16.5976H30.79087Zm321.94824-16.563H295.55166v16.53369h57.18745ZM65.32469,337.2439h74.3426V326.49717H65.32469Zm178.44963-.00213H318.083V326.497H243.77432Zm1.31672,12.20586c2.78523,7.27669,8.56531,11.115,16.687,11.16211q19.18329.1113,38.36758-.01474a20.55433,20.55433,0,0,0,5.90556-.80943,16.35025,16.35025,0,0,0,11.0457-10.33794Zm-178.5222.0138c2.96335,7.07163,8.35743,11.00669,15.68205,11.09951,13.58963.17224,27.19089.29551,40.7695-.12969,3.4791-.10893,7.18784-1.86623,10.238-3.758,2.306-1.43017,3.73171-4.27973,6.13451-7.21186ZM180.44182,101.263h22.57009V78.71184H180.44182Zm34.08889,23.10678V113.39021H169.10062v10.97952ZM252.557,65.68032c.90166,6.76405,5.366,11.57934,11.36138,12.60318a14.38246,14.38246,0,0,0,13.29936-23.81794c-3.838-4.23419-9.7833-5.69646-14.45036-3.55411,3.98891,4.37461,4.80779,8.43516,2.44338,12.116C262.74709,66.86281,258.93223,67.71253,252.557,65.68032ZM117.91643,50.14847c5.33121,5.212,6.07479,10.27465,2.36025,14.15726-3.99066,4.17124-8.83,3.541-14.37673-1.87232a13.4402,13.4402,0,0,0,7.34187,14.4575A14.3448,14.3448,0,0,0,132.73612,57.847C130.03174,52.33823,124.49769,49.34928,117.91643,50.14847ZM64.77455,268.3834V257.50652H53.9151V268.3834Zm253.62738-.09077h11.18186V257.44834h-10.993c-.07615.863-.177,1.50113-.18115,2.13987C318.39167,262.36255,318.40193,265.13709,318.40193,268.29263Z" transform="translate(-19.14122 -12.17899)"/><path class="cls-2" d="M306.96028,256.92285c0,5.32515-.01052,9.97066.00246,14.61612.01941,6.94726,1.42288,8.34052,8.43594,8.41352.79573.00828,1.59163.00113,2.69717.00113v34.20087H65.3692V280.3791a4.30808,4.30808,0,0,1,.95039-.36745c10.30078-.73577,10.39545-.83777,10.39551-11.40623,0-3.71343,0-7.42685,0-11.68352,5.33067,0,10.35277.03157,15.3743-.00832,5.80462-.04607,7.61453-1.83826,7.63393-7.70921.0414-12.52065.01266-25.04153.01266-37.89377H283.92925c0,1.28533,0,2.681,0,4.07676q.00007,16.59495.00239,33.18994c.00525,6.87507,1.48862,8.32644,8.5062,8.34343C297.07546,256.932,301.71313,256.92285,306.96028,256.92285Z" transform="translate(-19.14122 -12.17899)"/><path class="cls-3" d="M224.50374,25.02326,266.3613,37.86114C250.83164,40.67989,241.82,49.3221,240.833,61.65237a25.8675,25.8675,0,0,0,46.91435,17.40068c7.7689-10.995,6.17832-22.289-5.02011-35.64549,15.853,2.60465,27.233,9.42118,28.74423,25.71174,1.57615,16.99095-14.60134,31.28262-31.13283,26.91732-16.186-4.27406-32.20633-9.28305-48.06-14.67337-12.26428-4.16992-18.90418-17.545-15.60169-30.07989C218.94214,42.68565,221.739,34.228,224.50374,25.02326Z" transform="translate(-19.14122 -12.17899)"/><path class="cls-3" d="M128.71882,198.93634V153.81426h56.76554v45.12208Zm28.6086-34.065A11.51335,11.51335,0,1,0,168.76,176.37915,11.75171,11.75171,0,0,0,157.32742,164.8713Z" transform="translate(-19.14122 -12.17899)"/><path class="cls-3" d="M266.79368,153.554h51.34319v34.377H296.28145c-11.3221,0-11.3221,0-12.72237,11.11669h-16.7654Z" transform="translate(-19.14122 -12.17899)"/><path class="cls-3" d="M65.36492,187.93209V153.59351h51.20622v45.47931H99.72751c0-1.531.07026-3.05866-.0132-4.57792-.24892-4.53175-2.24364-6.51766-6.76926-6.546C83.90316,187.89226,74.86067,187.93209,65.36492,187.93209Z" transform="translate(-19.14122 -12.17899)"/><path class="cls-3" d="M318.39531,136.34372c0,1.3463.019,2.40714-.00825,3.46678-.01309.5084-.11379,1.01454-.20054,1.73524H65.33894v-5.202Z" transform="translate(-19.14122 -12.17899)"/><path class="cls-3" d="M117.95964,37.66016l41.38859-12.68343c2.849,10.55949,6.37521,20.661,8.15648,31.06126,1.80121,10.51675-5.812,21.511-16.22894,25.40311-5.83,2.17828-11.86718,3.80212-18.05457,5.48963,11.13709-8.59833,15.72532-19.44184,10.3435-32.763C139.10394,43.12642,130.00591,38.22016,117.95964,37.66016Z" transform="translate(-19.14122 -12.17899)"/><path class="cls-3" d="M105.754,41.23145C96.29656,49.22377,91.77059,58.708,94.88386,70.57178c3.40269,12.9667,12.89613,18.88414,25.95927,20.0504-9.63654,2.62139-18.59739,8.09487-29.17816,5.4025A26.01051,26.01051,0,0,1,72.06472,73.82782c-1.13858-10.839,4.35394-21.51335,14.198-25.91747C92.50621,45.11711,99.2401,43.42009,105.754,41.23145Z" transform="translate(-19.14122 -12.17899)"/><path class="cls-3" d="M30.7519,216.39209V199.6376H87.77264v16.75449Z" transform="translate(-19.14122 -12.17899)"/><path class="cls-3" d="M295.54426,216.41685V199.67049h57.05525v16.74636Z" transform="translate(-19.14122 -12.17899)"/><path class="cls-3" d="M30.79087,245.23723v-16.5976H87.86165v16.5976Z" transform="translate(-19.14122 -12.17899)"/><path class="cls-3" d="M352.73911,228.67422v16.53369H295.55166V228.67422Z" transform="translate(-19.14122 -12.17899)"/><path class="cls-3" d="M65.32469,337.2439V326.49717h74.3426V337.2439Z" transform="translate(-19.14122 -12.17899)"/><path class="cls-3" d="M243.77432,337.24177V326.497H318.083v10.74482Z" transform="translate(-19.14122 -12.17899)"/><path class="cls-3" d="M245.091,349.44763h72.00583a16.35025,16.35025,0,0,1-11.0457,10.33794,20.55433,20.55433,0,0,1-5.90556.80943q-19.18341.10327-38.36758.01474C253.65635,360.56265,247.87627,356.72432,245.091,349.44763Z" transform="translate(-19.14122 -12.17899)"/><path class="cls-3" d="M66.56884,349.46143h72.82408c-2.4028,2.93213-3.8285,5.78169-6.13451,7.21186-3.05018,1.89173-6.75892,3.649-10.238,3.758-13.57861.4252-27.17987.30193-40.7695.12969C74.92627,360.46812,69.53219,356.53306,66.56884,349.46143Z" transform="translate(-19.14122 -12.17899)"/><path class="cls-4" d="M180.44182,101.263V78.71184h22.57009V101.263Z" transform="translate(-19.14122 -12.17899)"/><path class="cls-4" d="M214.53071,124.36973H169.10062V113.39021h45.43009Z" transform="translate(-19.14122 -12.17899)"/><path class="cls-5" d="M252.557,65.68032c6.3752,2.03221,10.19006,1.18249,12.65376-2.65289,2.36441-3.68082,1.54553-7.74137-2.44338-12.116,4.66706-2.14235,10.61233-.68008,14.45036,3.55411A14.38246,14.38246,0,0,1,263.91841,78.2835C257.923,77.25966,253.45869,72.44437,252.557,65.68032Z" transform="translate(-19.14122 -12.17899)"/><path class="cls-5" d="M117.91643,50.14847c6.58126-.79919,12.11531,2.18976,14.81969,7.69853a14.3448,14.3448,0,0,1-19.4943,19.04391A13.4402,13.4402,0,0,1,105.9,62.43341c5.54671,5.41332,10.38607,6.04356,14.37673,1.87232C123.99122,60.42312,123.24764,55.36043,117.91643,50.14847Z" transform="translate(-19.14122 -12.17899)"/><path class="cls-3" d="M64.77455,268.3834H53.9151V257.50652H64.77455Z" transform="translate(-19.14122 -12.17899)"/><path class="cls-3" d="M318.40193,268.29263c0-3.15554-.01026-5.93008.00769-8.70442.00413-.63874.105-1.27683.18115-2.13987h10.993v10.84429Z" transform="translate(-19.14122 -12.17899)"/><path class="cls-6" d="M157.32742,164.8713a11.51328,11.51328,0,1,1-11.60252,11.3475A11.71294,11.71294,0,0,1,157.32742,164.8713Z" transform="translate(-19.14122 -12.17899)"/><rect class="cls-7" x="46.18348" y="286.97268" width="252.77115" height="15.00282"/><circle class="cls-4" cx="95.20219" cy="46.45447" r="8.61297"/><circle class="cls-4" cx="238.99907" cy="46.45447" r="8.61297"/></svg>